<mxfile host="app.diagrams.net" modified="2024-06-26T13:54:48.932Z" agent="Mozilla/5.0 (Windows NT 10.0; Win64; x64) AppleWebKit/537.36 (KHTML, like Gecko) Chrome/121.0.0.0 Safari/537.36" etag="UHuPiKuka3viPIbVyE99" version="24.6.3" type="device" pages="10">
  <diagram name="Página-1" id="JmoukTkrc4SAo6Al5TBl">
    <mxGraphModel dx="1434" dy="772" grid="1" gridSize="10" guides="1" tooltips="1" connect="1" arrows="1" fold="1" page="1" pageScale="1" pageWidth="827" pageHeight="1169" math="0" shadow="0">
      <root>
        <mxCell id="0" />
        <mxCell id="1" parent="0" />
        <mxCell id="-T4g21r6BM9YxBo1QIQQ-9" value="" style="edgeStyle=orthogonalEdgeStyle;rounded=0;orthogonalLoop=1;jettySize=auto;html=1;" edge="1" parent="1" source="-T4g21r6BM9YxBo1QIQQ-1" target="-T4g21r6BM9YxBo1QIQQ-4">
          <mxGeometry relative="1" as="geometry" />
        </mxCell>
        <mxCell id="-T4g21r6BM9YxBo1QIQQ-1" value="Inicio" style="ellipse;whiteSpace=wrap;html=1;" vertex="1" parent="1">
          <mxGeometry x="320" y="40" width="120" height="80" as="geometry" />
        </mxCell>
        <mxCell id="-T4g21r6BM9YxBo1QIQQ-105" style="edgeStyle=orthogonalEdgeStyle;rounded=0;orthogonalLoop=1;jettySize=auto;html=1;exitX=0.5;exitY=1;exitDx=0;exitDy=0;" edge="1" parent="1" source="-T4g21r6BM9YxBo1QIQQ-4">
          <mxGeometry relative="1" as="geometry">
            <mxPoint x="380" y="260" as="targetPoint" />
          </mxGeometry>
        </mxCell>
        <mxCell id="-T4g21r6BM9YxBo1QIQQ-4" value="Listar Cliente" style="rounded=0;whiteSpace=wrap;html=1;" vertex="1" parent="1">
          <mxGeometry x="320" y="160" width="120" height="60" as="geometry" />
        </mxCell>
        <mxCell id="-T4g21r6BM9YxBo1QIQQ-15" value="Não" style="edgeStyle=orthogonalEdgeStyle;rounded=0;orthogonalLoop=1;jettySize=auto;html=1;" edge="1" parent="1" source="-T4g21r6BM9YxBo1QIQQ-13">
          <mxGeometry relative="1" as="geometry">
            <mxPoint x="380" y="410" as="targetPoint" />
          </mxGeometry>
        </mxCell>
        <mxCell id="-T4g21r6BM9YxBo1QIQQ-13" value="Cliente cadastrado" style="rhombus;whiteSpace=wrap;html=1;" vertex="1" parent="1">
          <mxGeometry x="320" y="270" width="115" height="100" as="geometry" />
        </mxCell>
        <mxCell id="-T4g21r6BM9YxBo1QIQQ-17" style="edgeStyle=orthogonalEdgeStyle;rounded=0;orthogonalLoop=1;jettySize=auto;html=1;" edge="1" parent="1" source="-T4g21r6BM9YxBo1QIQQ-16">
          <mxGeometry relative="1" as="geometry">
            <mxPoint x="385" y="500" as="targetPoint" />
          </mxGeometry>
        </mxCell>
        <mxCell id="-T4g21r6BM9YxBo1QIQQ-16" value="Cadastrar Cliente" style="rounded=0;whiteSpace=wrap;html=1;" vertex="1" parent="1">
          <mxGeometry x="325" y="410" width="120" height="60" as="geometry" />
        </mxCell>
        <mxCell id="-T4g21r6BM9YxBo1QIQQ-22" value="Não" style="edgeStyle=orthogonalEdgeStyle;rounded=0;orthogonalLoop=1;jettySize=auto;html=1;" edge="1" parent="1" source="-T4g21r6BM9YxBo1QIQQ-18">
          <mxGeometry relative="1" as="geometry">
            <mxPoint x="500" y="540" as="targetPoint" />
          </mxGeometry>
        </mxCell>
        <mxCell id="-T4g21r6BM9YxBo1QIQQ-18" value="Dados validos" style="rhombus;whiteSpace=wrap;html=1;" vertex="1" parent="1">
          <mxGeometry x="330" y="500" width="120" height="80" as="geometry" />
        </mxCell>
        <mxCell id="-T4g21r6BM9YxBo1QIQQ-23" value="Mostrar Erro" style="rounded=0;whiteSpace=wrap;html=1;" vertex="1" parent="1">
          <mxGeometry x="500" y="510" width="120" height="60" as="geometry" />
        </mxCell>
        <mxCell id="-T4g21r6BM9YxBo1QIQQ-31" style="edgeStyle=orthogonalEdgeStyle;rounded=0;orthogonalLoop=1;jettySize=auto;html=1;exitX=0.5;exitY=0;exitDx=0;exitDy=0;entryX=0.992;entryY=0.15;entryDx=0;entryDy=0;entryPerimeter=0;" edge="1" parent="1" source="-T4g21r6BM9YxBo1QIQQ-23" target="-T4g21r6BM9YxBo1QIQQ-16">
          <mxGeometry relative="1" as="geometry" />
        </mxCell>
        <mxCell id="-T4g21r6BM9YxBo1QIQQ-38" style="edgeStyle=orthogonalEdgeStyle;rounded=0;orthogonalLoop=1;jettySize=auto;html=1;exitX=0.5;exitY=1;exitDx=0;exitDy=0;entryX=0.464;entryY=0.167;entryDx=0;entryDy=0;entryPerimeter=0;" edge="1" parent="1" source="-T4g21r6BM9YxBo1QIQQ-18">
          <mxGeometry relative="1" as="geometry">
            <mxPoint x="389.96000000000004" y="630.02" as="targetPoint" />
          </mxGeometry>
        </mxCell>
        <mxCell id="-T4g21r6BM9YxBo1QIQQ-39" value="Sim" style="edgeLabel;html=1;align=center;verticalAlign=middle;resizable=0;points=[];" vertex="1" connectable="0" parent="-T4g21r6BM9YxBo1QIQQ-38">
          <mxGeometry x="0.2073" relative="1" as="geometry">
            <mxPoint as="offset" />
          </mxGeometry>
        </mxCell>
        <mxCell id="-T4g21r6BM9YxBo1QIQQ-71" style="edgeStyle=orthogonalEdgeStyle;rounded=0;orthogonalLoop=1;jettySize=auto;html=1;exitX=0.5;exitY=1;exitDx=0;exitDy=0;entryX=1;entryY=0.5;entryDx=0;entryDy=0;" edge="1" parent="1" source="-T4g21r6BM9YxBo1QIQQ-47" target="-T4g21r6BM9YxBo1QIQQ-69">
          <mxGeometry relative="1" as="geometry" />
        </mxCell>
        <mxCell id="-T4g21r6BM9YxBo1QIQQ-47" value="Cadastro Concluido" style="rounded=0;whiteSpace=wrap;html=1;" vertex="1" parent="1">
          <mxGeometry x="330" y="630" width="120" height="60" as="geometry" />
        </mxCell>
        <mxCell id="-T4g21r6BM9YxBo1QIQQ-108" style="edgeStyle=orthogonalEdgeStyle;rounded=0;orthogonalLoop=1;jettySize=auto;html=1;" edge="1" parent="1" source="-T4g21r6BM9YxBo1QIQQ-51" target="-T4g21r6BM9YxBo1QIQQ-53">
          <mxGeometry relative="1" as="geometry" />
        </mxCell>
        <mxCell id="-T4g21r6BM9YxBo1QIQQ-51" value="Buscar Cliente" style="rounded=0;whiteSpace=wrap;html=1;" vertex="1" parent="1">
          <mxGeometry x="160" y="310" width="120" height="60" as="geometry" />
        </mxCell>
        <mxCell id="-T4g21r6BM9YxBo1QIQQ-110" style="edgeStyle=orthogonalEdgeStyle;rounded=0;orthogonalLoop=1;jettySize=auto;html=1;exitX=0.5;exitY=1;exitDx=0;exitDy=0;entryX=0.5;entryY=0;entryDx=0;entryDy=0;" edge="1" parent="1" source="-T4g21r6BM9YxBo1QIQQ-53" target="-T4g21r6BM9YxBo1QIQQ-61">
          <mxGeometry relative="1" as="geometry" />
        </mxCell>
        <mxCell id="-T4g21r6BM9YxBo1QIQQ-122" style="edgeStyle=orthogonalEdgeStyle;rounded=0;orthogonalLoop=1;jettySize=auto;html=1;entryX=0;entryY=0.5;entryDx=0;entryDy=0;" edge="1" parent="1" source="-T4g21r6BM9YxBo1QIQQ-53" target="-T4g21r6BM9YxBo1QIQQ-4">
          <mxGeometry relative="1" as="geometry" />
        </mxCell>
        <mxCell id="-T4g21r6BM9YxBo1QIQQ-123" style="edgeStyle=orthogonalEdgeStyle;rounded=0;orthogonalLoop=1;jettySize=auto;html=1;exitX=0;exitY=0.5;exitDx=0;exitDy=0;entryX=0;entryY=0.5;entryDx=0;entryDy=0;" edge="1" parent="1" source="-T4g21r6BM9YxBo1QIQQ-53" target="-T4g21r6BM9YxBo1QIQQ-1">
          <mxGeometry relative="1" as="geometry" />
        </mxCell>
        <mxCell id="-T4g21r6BM9YxBo1QIQQ-124" value="Não" style="edgeLabel;html=1;align=center;verticalAlign=middle;resizable=0;points=[];" vertex="1" connectable="0" parent="-T4g21r6BM9YxBo1QIQQ-123">
          <mxGeometry x="-0.2479" y="2" relative="1" as="geometry">
            <mxPoint as="offset" />
          </mxGeometry>
        </mxCell>
        <mxCell id="-T4g21r6BM9YxBo1QIQQ-53" value="Cliente Encontrado" style="rhombus;whiteSpace=wrap;html=1;" vertex="1" parent="1">
          <mxGeometry x="170" y="430" width="100" height="90" as="geometry" />
        </mxCell>
        <mxCell id="-T4g21r6BM9YxBo1QIQQ-111" style="edgeStyle=orthogonalEdgeStyle;rounded=0;orthogonalLoop=1;jettySize=auto;html=1;" edge="1" parent="1" source="-T4g21r6BM9YxBo1QIQQ-61" target="-T4g21r6BM9YxBo1QIQQ-64">
          <mxGeometry relative="1" as="geometry" />
        </mxCell>
        <mxCell id="-T4g21r6BM9YxBo1QIQQ-112" value="Não" style="edgeLabel;html=1;align=center;verticalAlign=middle;resizable=0;points=[];" vertex="1" connectable="0" parent="-T4g21r6BM9YxBo1QIQQ-111">
          <mxGeometry x="-0.04" y="2" relative="1" as="geometry">
            <mxPoint as="offset" />
          </mxGeometry>
        </mxCell>
        <mxCell id="-T4g21r6BM9YxBo1QIQQ-61" value="Excluir Cliente" style="rhombus;whiteSpace=wrap;html=1;" vertex="1" parent="1">
          <mxGeometry x="170" y="550" width="100" height="90" as="geometry" />
        </mxCell>
        <mxCell id="-T4g21r6BM9YxBo1QIQQ-73" style="edgeStyle=orthogonalEdgeStyle;rounded=0;orthogonalLoop=1;jettySize=auto;html=1;exitX=0.5;exitY=1;exitDx=0;exitDy=0;entryX=0;entryY=0.5;entryDx=0;entryDy=0;" edge="1" parent="1" source="-T4g21r6BM9YxBo1QIQQ-64" target="-T4g21r6BM9YxBo1QIQQ-69">
          <mxGeometry relative="1" as="geometry" />
        </mxCell>
        <mxCell id="-T4g21r6BM9YxBo1QIQQ-74" value="Não" style="edgeLabel;html=1;align=center;verticalAlign=middle;resizable=0;points=[];" vertex="1" connectable="0" parent="-T4g21r6BM9YxBo1QIQQ-73">
          <mxGeometry x="-0.48" y="1" relative="1" as="geometry">
            <mxPoint as="offset" />
          </mxGeometry>
        </mxCell>
        <mxCell id="-T4g21r6BM9YxBo1QIQQ-114" style="edgeStyle=orthogonalEdgeStyle;rounded=0;orthogonalLoop=1;jettySize=auto;html=1;exitX=0;exitY=0.5;exitDx=0;exitDy=0;" edge="1" parent="1" source="-T4g21r6BM9YxBo1QIQQ-64">
          <mxGeometry relative="1" as="geometry">
            <mxPoint x="130" y="730" as="targetPoint" />
          </mxGeometry>
        </mxCell>
        <mxCell id="-T4g21r6BM9YxBo1QIQQ-64" value="Atualizar Cliente" style="rhombus;whiteSpace=wrap;html=1;" vertex="1" parent="1">
          <mxGeometry x="170" y="690" width="100" height="80" as="geometry" />
        </mxCell>
        <mxCell id="-T4g21r6BM9YxBo1QIQQ-69" value="Fim" style="ellipse;whiteSpace=wrap;html=1;" vertex="1" parent="1">
          <mxGeometry x="250" y="760" width="120" height="80" as="geometry" />
        </mxCell>
        <mxCell id="-T4g21r6BM9YxBo1QIQQ-120" style="edgeStyle=orthogonalEdgeStyle;rounded=0;orthogonalLoop=1;jettySize=auto;html=1;exitX=0.5;exitY=1;exitDx=0;exitDy=0;entryX=0.5;entryY=1;entryDx=0;entryDy=0;" edge="1" parent="1" source="-T4g21r6BM9YxBo1QIQQ-87" target="-T4g21r6BM9YxBo1QIQQ-69">
          <mxGeometry relative="1" as="geometry" />
        </mxCell>
        <mxCell id="-T4g21r6BM9YxBo1QIQQ-87" value="Atualização Concluida" style="rounded=0;whiteSpace=wrap;html=1;" vertex="1" parent="1">
          <mxGeometry x="25" y="820" width="120" height="60" as="geometry" />
        </mxCell>
        <mxCell id="-T4g21r6BM9YxBo1QIQQ-117" style="edgeStyle=orthogonalEdgeStyle;rounded=0;orthogonalLoop=1;jettySize=auto;html=1;exitX=0.5;exitY=1;exitDx=0;exitDy=0;" edge="1" parent="1" source="-T4g21r6BM9YxBo1QIQQ-115">
          <mxGeometry relative="1" as="geometry">
            <mxPoint x="85" y="820" as="targetPoint" />
          </mxGeometry>
        </mxCell>
        <mxCell id="-T4g21r6BM9YxBo1QIQQ-119" value="Sim" style="edgeLabel;html=1;align=center;verticalAlign=middle;resizable=0;points=[];" vertex="1" connectable="0" parent="-T4g21r6BM9YxBo1QIQQ-117">
          <mxGeometry x="-0.0892" y="-3" relative="1" as="geometry">
            <mxPoint as="offset" />
          </mxGeometry>
        </mxCell>
        <mxCell id="-T4g21r6BM9YxBo1QIQQ-115" value="Dados Validos" style="rhombus;whiteSpace=wrap;html=1;" vertex="1" parent="1">
          <mxGeometry x="40" y="690" width="90" height="80" as="geometry" />
        </mxCell>
      </root>
    </mxGraphModel>
  </diagram>
  <diagram id="FF-3B9WEqwIqzffylGSN" name="Página-2">
    <mxGraphModel dx="1434" dy="782" grid="1" gridSize="10" guides="1" tooltips="1" connect="1" arrows="1" fold="1" page="1" pageScale="1" pageWidth="827" pageHeight="1169" math="0" shadow="0">
      <root>
        <mxCell id="0" />
        <mxCell id="1" parent="0" />
        <mxCell id="cfP5T28f7ZFQE_xr4H6n-1" value="" style="edgeStyle=orthogonalEdgeStyle;rounded=0;orthogonalLoop=1;jettySize=auto;html=1;" parent="1" source="cfP5T28f7ZFQE_xr4H6n-2" target="cfP5T28f7ZFQE_xr4H6n-4" edge="1">
          <mxGeometry relative="1" as="geometry" />
        </mxCell>
        <mxCell id="cfP5T28f7ZFQE_xr4H6n-2" value="Inicio" style="ellipse;whiteSpace=wrap;html=1;fillColor=#dae8fc;strokeColor=#6c8ebf;" parent="1" vertex="1">
          <mxGeometry x="320" y="40" width="120" height="80" as="geometry" />
        </mxCell>
        <mxCell id="cfP5T28f7ZFQE_xr4H6n-3" style="edgeStyle=orthogonalEdgeStyle;rounded=0;orthogonalLoop=1;jettySize=auto;html=1;exitX=0.5;exitY=1;exitDx=0;exitDy=0;" parent="1" source="cfP5T28f7ZFQE_xr4H6n-4" edge="1">
          <mxGeometry relative="1" as="geometry">
            <mxPoint x="380" y="260" as="targetPoint" />
          </mxGeometry>
        </mxCell>
        <mxCell id="cfP5T28f7ZFQE_xr4H6n-4" value="Listar Fornecedor" style="rounded=0;whiteSpace=wrap;html=1;fillColor=#dae8fc;strokeColor=#6c8ebf;" parent="1" vertex="1">
          <mxGeometry x="320" y="160" width="120" height="60" as="geometry" />
        </mxCell>
        <mxCell id="cfP5T28f7ZFQE_xr4H6n-5" value="Não" style="edgeStyle=orthogonalEdgeStyle;rounded=0;orthogonalLoop=1;jettySize=auto;html=1;" parent="1" source="cfP5T28f7ZFQE_xr4H6n-6" edge="1">
          <mxGeometry relative="1" as="geometry">
            <mxPoint x="380" y="410" as="targetPoint" />
          </mxGeometry>
        </mxCell>
        <mxCell id="cfP5T28f7ZFQE_xr4H6n-6" value="Fornecedor Cadastrado" style="rhombus;whiteSpace=wrap;html=1;fillColor=#dae8fc;strokeColor=#6c8ebf;" parent="1" vertex="1">
          <mxGeometry x="320" y="270" width="115" height="100" as="geometry" />
        </mxCell>
        <mxCell id="cfP5T28f7ZFQE_xr4H6n-7" style="edgeStyle=orthogonalEdgeStyle;rounded=0;orthogonalLoop=1;jettySize=auto;html=1;" parent="1" source="cfP5T28f7ZFQE_xr4H6n-8" edge="1">
          <mxGeometry relative="1" as="geometry">
            <mxPoint x="385" y="500" as="targetPoint" />
          </mxGeometry>
        </mxCell>
        <mxCell id="cfP5T28f7ZFQE_xr4H6n-8" value="Cadastrar Fornecedor" style="rounded=0;whiteSpace=wrap;html=1;fillColor=#dae8fc;strokeColor=#6c8ebf;" parent="1" vertex="1">
          <mxGeometry x="325" y="410" width="120" height="60" as="geometry" />
        </mxCell>
        <mxCell id="cfP5T28f7ZFQE_xr4H6n-9" value="Não" style="edgeStyle=orthogonalEdgeStyle;rounded=0;orthogonalLoop=1;jettySize=auto;html=1;" parent="1" source="cfP5T28f7ZFQE_xr4H6n-10" edge="1">
          <mxGeometry relative="1" as="geometry">
            <mxPoint x="500" y="540" as="targetPoint" />
          </mxGeometry>
        </mxCell>
        <mxCell id="cfP5T28f7ZFQE_xr4H6n-10" value="Dados validos" style="rhombus;whiteSpace=wrap;html=1;fillColor=#dae8fc;strokeColor=#6c8ebf;" parent="1" vertex="1">
          <mxGeometry x="330" y="500" width="120" height="80" as="geometry" />
        </mxCell>
        <mxCell id="cfP5T28f7ZFQE_xr4H6n-11" value="Mostrar Erro" style="rounded=0;whiteSpace=wrap;html=1;fillColor=#dae8fc;strokeColor=#6c8ebf;" parent="1" vertex="1">
          <mxGeometry x="500" y="510" width="120" height="60" as="geometry" />
        </mxCell>
        <mxCell id="cfP5T28f7ZFQE_xr4H6n-12" style="edgeStyle=orthogonalEdgeStyle;rounded=0;orthogonalLoop=1;jettySize=auto;html=1;exitX=0.5;exitY=0;exitDx=0;exitDy=0;entryX=0.992;entryY=0.15;entryDx=0;entryDy=0;entryPerimeter=0;" parent="1" source="cfP5T28f7ZFQE_xr4H6n-11" target="cfP5T28f7ZFQE_xr4H6n-8" edge="1">
          <mxGeometry relative="1" as="geometry" />
        </mxCell>
        <mxCell id="cfP5T28f7ZFQE_xr4H6n-13" style="edgeStyle=orthogonalEdgeStyle;rounded=0;orthogonalLoop=1;jettySize=auto;html=1;exitX=0.5;exitY=1;exitDx=0;exitDy=0;entryX=0.464;entryY=0.167;entryDx=0;entryDy=0;entryPerimeter=0;" parent="1" source="cfP5T28f7ZFQE_xr4H6n-10" edge="1">
          <mxGeometry relative="1" as="geometry">
            <mxPoint x="389.96000000000004" y="630.02" as="targetPoint" />
          </mxGeometry>
        </mxCell>
        <mxCell id="cfP5T28f7ZFQE_xr4H6n-14" value="Sim" style="edgeLabel;html=1;align=center;verticalAlign=middle;resizable=0;points=[];" parent="cfP5T28f7ZFQE_xr4H6n-13" vertex="1" connectable="0">
          <mxGeometry x="0.2073" relative="1" as="geometry">
            <mxPoint as="offset" />
          </mxGeometry>
        </mxCell>
        <mxCell id="cfP5T28f7ZFQE_xr4H6n-15" style="edgeStyle=orthogonalEdgeStyle;rounded=0;orthogonalLoop=1;jettySize=auto;html=1;exitX=0.5;exitY=1;exitDx=0;exitDy=0;entryX=1;entryY=0.5;entryDx=0;entryDy=0;" parent="1" source="cfP5T28f7ZFQE_xr4H6n-16" target="cfP5T28f7ZFQE_xr4H6n-31" edge="1">
          <mxGeometry relative="1" as="geometry" />
        </mxCell>
        <mxCell id="cfP5T28f7ZFQE_xr4H6n-16" value="Cadastro Concluido" style="rounded=0;whiteSpace=wrap;html=1;fillColor=#dae8fc;strokeColor=#6c8ebf;" parent="1" vertex="1">
          <mxGeometry x="330" y="630" width="120" height="60" as="geometry" />
        </mxCell>
        <mxCell id="cfP5T28f7ZFQE_xr4H6n-17" style="edgeStyle=orthogonalEdgeStyle;rounded=0;orthogonalLoop=1;jettySize=auto;html=1;" parent="1" source="cfP5T28f7ZFQE_xr4H6n-18" target="cfP5T28f7ZFQE_xr4H6n-23" edge="1">
          <mxGeometry relative="1" as="geometry" />
        </mxCell>
        <mxCell id="cfP5T28f7ZFQE_xr4H6n-18" value="Buscar Fornecedor" style="rounded=0;whiteSpace=wrap;html=1;fillColor=#dae8fc;strokeColor=#6c8ebf;" parent="1" vertex="1">
          <mxGeometry x="160" y="310" width="120" height="60" as="geometry" />
        </mxCell>
        <mxCell id="cfP5T28f7ZFQE_xr4H6n-19" style="edgeStyle=orthogonalEdgeStyle;rounded=0;orthogonalLoop=1;jettySize=auto;html=1;exitX=0.5;exitY=1;exitDx=0;exitDy=0;entryX=0.5;entryY=0;entryDx=0;entryDy=0;" parent="1" source="cfP5T28f7ZFQE_xr4H6n-23" target="cfP5T28f7ZFQE_xr4H6n-26" edge="1">
          <mxGeometry relative="1" as="geometry" />
        </mxCell>
        <mxCell id="cfP5T28f7ZFQE_xr4H6n-20" style="edgeStyle=orthogonalEdgeStyle;rounded=0;orthogonalLoop=1;jettySize=auto;html=1;entryX=0;entryY=0.5;entryDx=0;entryDy=0;" parent="1" source="cfP5T28f7ZFQE_xr4H6n-23" target="cfP5T28f7ZFQE_xr4H6n-4" edge="1">
          <mxGeometry relative="1" as="geometry" />
        </mxCell>
        <mxCell id="cfP5T28f7ZFQE_xr4H6n-21" style="edgeStyle=orthogonalEdgeStyle;rounded=0;orthogonalLoop=1;jettySize=auto;html=1;exitX=0;exitY=0.5;exitDx=0;exitDy=0;entryX=0;entryY=0.5;entryDx=0;entryDy=0;" parent="1" source="cfP5T28f7ZFQE_xr4H6n-23" target="cfP5T28f7ZFQE_xr4H6n-2" edge="1">
          <mxGeometry relative="1" as="geometry" />
        </mxCell>
        <mxCell id="cfP5T28f7ZFQE_xr4H6n-22" value="Não" style="edgeLabel;html=1;align=center;verticalAlign=middle;resizable=0;points=[];" parent="cfP5T28f7ZFQE_xr4H6n-21" vertex="1" connectable="0">
          <mxGeometry x="-0.2479" y="2" relative="1" as="geometry">
            <mxPoint as="offset" />
          </mxGeometry>
        </mxCell>
        <mxCell id="cfP5T28f7ZFQE_xr4H6n-23" value="Fornecedor Encontrado" style="rhombus;whiteSpace=wrap;html=1;fillColor=#dae8fc;strokeColor=#6c8ebf;" parent="1" vertex="1">
          <mxGeometry x="170" y="430" width="100" height="90" as="geometry" />
        </mxCell>
        <mxCell id="cfP5T28f7ZFQE_xr4H6n-24" style="edgeStyle=orthogonalEdgeStyle;rounded=0;orthogonalLoop=1;jettySize=auto;html=1;" parent="1" source="cfP5T28f7ZFQE_xr4H6n-26" target="cfP5T28f7ZFQE_xr4H6n-30" edge="1">
          <mxGeometry relative="1" as="geometry" />
        </mxCell>
        <mxCell id="cfP5T28f7ZFQE_xr4H6n-25" value="Não" style="edgeLabel;html=1;align=center;verticalAlign=middle;resizable=0;points=[];" parent="cfP5T28f7ZFQE_xr4H6n-24" vertex="1" connectable="0">
          <mxGeometry x="-0.04" y="2" relative="1" as="geometry">
            <mxPoint as="offset" />
          </mxGeometry>
        </mxCell>
        <mxCell id="cfP5T28f7ZFQE_xr4H6n-26" value="Excluir Fornecedor" style="rhombus;whiteSpace=wrap;html=1;fillColor=#dae8fc;strokeColor=#6c8ebf;" parent="1" vertex="1">
          <mxGeometry x="170" y="550" width="100" height="90" as="geometry" />
        </mxCell>
        <mxCell id="cfP5T28f7ZFQE_xr4H6n-27" style="edgeStyle=orthogonalEdgeStyle;rounded=0;orthogonalLoop=1;jettySize=auto;html=1;exitX=0.5;exitY=1;exitDx=0;exitDy=0;entryX=0;entryY=0.5;entryDx=0;entryDy=0;" parent="1" source="cfP5T28f7ZFQE_xr4H6n-30" target="cfP5T28f7ZFQE_xr4H6n-31" edge="1">
          <mxGeometry relative="1" as="geometry" />
        </mxCell>
        <mxCell id="cfP5T28f7ZFQE_xr4H6n-28" value="Não" style="edgeLabel;html=1;align=center;verticalAlign=middle;resizable=0;points=[];" parent="cfP5T28f7ZFQE_xr4H6n-27" vertex="1" connectable="0">
          <mxGeometry x="-0.48" y="1" relative="1" as="geometry">
            <mxPoint as="offset" />
          </mxGeometry>
        </mxCell>
        <mxCell id="cfP5T28f7ZFQE_xr4H6n-29" style="edgeStyle=orthogonalEdgeStyle;rounded=0;orthogonalLoop=1;jettySize=auto;html=1;exitX=0;exitY=0.5;exitDx=0;exitDy=0;" parent="1" source="cfP5T28f7ZFQE_xr4H6n-30" edge="1">
          <mxGeometry relative="1" as="geometry">
            <mxPoint x="130" y="730" as="targetPoint" />
          </mxGeometry>
        </mxCell>
        <mxCell id="cfP5T28f7ZFQE_xr4H6n-30" value="Atualizar Fornecedor" style="rhombus;whiteSpace=wrap;html=1;fillColor=#dae8fc;strokeColor=#6c8ebf;" parent="1" vertex="1">
          <mxGeometry x="170" y="690" width="100" height="80" as="geometry" />
        </mxCell>
        <mxCell id="cfP5T28f7ZFQE_xr4H6n-31" value="Fim" style="ellipse;whiteSpace=wrap;html=1;fillColor=#dae8fc;strokeColor=#6c8ebf;" parent="1" vertex="1">
          <mxGeometry x="250" y="760" width="120" height="80" as="geometry" />
        </mxCell>
        <mxCell id="cfP5T28f7ZFQE_xr4H6n-32" style="edgeStyle=orthogonalEdgeStyle;rounded=0;orthogonalLoop=1;jettySize=auto;html=1;exitX=0.5;exitY=1;exitDx=0;exitDy=0;entryX=0.5;entryY=1;entryDx=0;entryDy=0;" parent="1" source="cfP5T28f7ZFQE_xr4H6n-33" target="cfP5T28f7ZFQE_xr4H6n-31" edge="1">
          <mxGeometry relative="1" as="geometry" />
        </mxCell>
        <mxCell id="cfP5T28f7ZFQE_xr4H6n-33" value="Atualização Concluida" style="rounded=0;whiteSpace=wrap;html=1;fillColor=#dae8fc;strokeColor=#6c8ebf;" parent="1" vertex="1">
          <mxGeometry x="25" y="820" width="120" height="60" as="geometry" />
        </mxCell>
        <mxCell id="cfP5T28f7ZFQE_xr4H6n-34" style="edgeStyle=orthogonalEdgeStyle;rounded=0;orthogonalLoop=1;jettySize=auto;html=1;exitX=0.5;exitY=1;exitDx=0;exitDy=0;" parent="1" source="cfP5T28f7ZFQE_xr4H6n-36" edge="1">
          <mxGeometry relative="1" as="geometry">
            <mxPoint x="85" y="820" as="targetPoint" />
          </mxGeometry>
        </mxCell>
        <mxCell id="cfP5T28f7ZFQE_xr4H6n-35" value="Sim" style="edgeLabel;html=1;align=center;verticalAlign=middle;resizable=0;points=[];" parent="cfP5T28f7ZFQE_xr4H6n-34" vertex="1" connectable="0">
          <mxGeometry x="-0.0892" y="-3" relative="1" as="geometry">
            <mxPoint as="offset" />
          </mxGeometry>
        </mxCell>
        <mxCell id="cfP5T28f7ZFQE_xr4H6n-36" value="Dados Validos" style="rhombus;whiteSpace=wrap;html=1;fillColor=#dae8fc;strokeColor=#6c8ebf;" parent="1" vertex="1">
          <mxGeometry x="40" y="690" width="90" height="80" as="geometry" />
        </mxCell>
      </root>
    </mxGraphModel>
  </diagram>
  <diagram id="8Gi0CcuV3TCrMctb4WXV" name="Página-3">
    <mxGraphModel dx="1434" dy="782" grid="1" gridSize="10" guides="1" tooltips="1" connect="1" arrows="1" fold="1" page="1" pageScale="1" pageWidth="827" pageHeight="1169" math="0" shadow="0">
      <root>
        <mxCell id="0" />
        <mxCell id="1" parent="0" />
        <mxCell id="-OBxYNr41z-snM1bFInR-1" value="" style="edgeStyle=orthogonalEdgeStyle;rounded=0;orthogonalLoop=1;jettySize=auto;html=1;" parent="1" source="-OBxYNr41z-snM1bFInR-2" target="-OBxYNr41z-snM1bFInR-4" edge="1">
          <mxGeometry relative="1" as="geometry" />
        </mxCell>
        <mxCell id="-OBxYNr41z-snM1bFInR-2" value="Inicio" style="ellipse;whiteSpace=wrap;html=1;fillColor=#dae8fc;strokeColor=#6c8ebf;" parent="1" vertex="1">
          <mxGeometry x="320" y="40" width="120" height="80" as="geometry" />
        </mxCell>
        <mxCell id="-OBxYNr41z-snM1bFInR-3" style="edgeStyle=orthogonalEdgeStyle;rounded=0;orthogonalLoop=1;jettySize=auto;html=1;exitX=0.5;exitY=1;exitDx=0;exitDy=0;" parent="1" source="-OBxYNr41z-snM1bFInR-4" edge="1">
          <mxGeometry relative="1" as="geometry">
            <mxPoint x="380" y="260" as="targetPoint" />
          </mxGeometry>
        </mxCell>
        <mxCell id="-OBxYNr41z-snM1bFInR-4" value="Listar Materia Prima" style="rounded=0;whiteSpace=wrap;html=1;fillColor=#dae8fc;strokeColor=#6c8ebf;" parent="1" vertex="1">
          <mxGeometry x="320" y="160" width="120" height="60" as="geometry" />
        </mxCell>
        <mxCell id="-OBxYNr41z-snM1bFInR-5" value="Não" style="edgeStyle=orthogonalEdgeStyle;rounded=0;orthogonalLoop=1;jettySize=auto;html=1;" parent="1" source="-OBxYNr41z-snM1bFInR-6" edge="1">
          <mxGeometry relative="1" as="geometry">
            <mxPoint x="380" y="410" as="targetPoint" />
          </mxGeometry>
        </mxCell>
        <mxCell id="-OBxYNr41z-snM1bFInR-6" value="Materia Prima Cadastrada" style="rhombus;whiteSpace=wrap;html=1;fillColor=#dae8fc;strokeColor=#6c8ebf;" parent="1" vertex="1">
          <mxGeometry x="320" y="270" width="115" height="100" as="geometry" />
        </mxCell>
        <mxCell id="-OBxYNr41z-snM1bFInR-7" style="edgeStyle=orthogonalEdgeStyle;rounded=0;orthogonalLoop=1;jettySize=auto;html=1;" parent="1" source="-OBxYNr41z-snM1bFInR-8" edge="1">
          <mxGeometry relative="1" as="geometry">
            <mxPoint x="385" y="500" as="targetPoint" />
          </mxGeometry>
        </mxCell>
        <mxCell id="-OBxYNr41z-snM1bFInR-8" value="Cadastrar Materia Prima" style="rounded=0;whiteSpace=wrap;html=1;fillColor=#dae8fc;strokeColor=#6c8ebf;" parent="1" vertex="1">
          <mxGeometry x="325" y="410" width="120" height="60" as="geometry" />
        </mxCell>
        <mxCell id="-OBxYNr41z-snM1bFInR-9" value="Não" style="edgeStyle=orthogonalEdgeStyle;rounded=0;orthogonalLoop=1;jettySize=auto;html=1;" parent="1" source="-OBxYNr41z-snM1bFInR-10" edge="1">
          <mxGeometry relative="1" as="geometry">
            <mxPoint x="500" y="540" as="targetPoint" />
          </mxGeometry>
        </mxCell>
        <mxCell id="-OBxYNr41z-snM1bFInR-10" value="Dados validos" style="rhombus;whiteSpace=wrap;html=1;fillColor=#dae8fc;strokeColor=#6c8ebf;" parent="1" vertex="1">
          <mxGeometry x="330" y="500" width="120" height="80" as="geometry" />
        </mxCell>
        <mxCell id="-OBxYNr41z-snM1bFInR-11" value="Mostrar Erro" style="rounded=0;whiteSpace=wrap;html=1;fillColor=#dae8fc;strokeColor=#6c8ebf;" parent="1" vertex="1">
          <mxGeometry x="500" y="510" width="120" height="60" as="geometry" />
        </mxCell>
        <mxCell id="-OBxYNr41z-snM1bFInR-12" style="edgeStyle=orthogonalEdgeStyle;rounded=0;orthogonalLoop=1;jettySize=auto;html=1;exitX=0.5;exitY=0;exitDx=0;exitDy=0;entryX=0.992;entryY=0.15;entryDx=0;entryDy=0;entryPerimeter=0;" parent="1" source="-OBxYNr41z-snM1bFInR-11" target="-OBxYNr41z-snM1bFInR-8" edge="1">
          <mxGeometry relative="1" as="geometry" />
        </mxCell>
        <mxCell id="-OBxYNr41z-snM1bFInR-13" style="edgeStyle=orthogonalEdgeStyle;rounded=0;orthogonalLoop=1;jettySize=auto;html=1;exitX=0.5;exitY=1;exitDx=0;exitDy=0;entryX=0.464;entryY=0.167;entryDx=0;entryDy=0;entryPerimeter=0;" parent="1" source="-OBxYNr41z-snM1bFInR-10" edge="1">
          <mxGeometry relative="1" as="geometry">
            <mxPoint x="389.96000000000004" y="630.02" as="targetPoint" />
          </mxGeometry>
        </mxCell>
        <mxCell id="-OBxYNr41z-snM1bFInR-14" value="Sim" style="edgeLabel;html=1;align=center;verticalAlign=middle;resizable=0;points=[];" parent="-OBxYNr41z-snM1bFInR-13" vertex="1" connectable="0">
          <mxGeometry x="0.2073" relative="1" as="geometry">
            <mxPoint as="offset" />
          </mxGeometry>
        </mxCell>
        <mxCell id="-OBxYNr41z-snM1bFInR-15" style="edgeStyle=orthogonalEdgeStyle;rounded=0;orthogonalLoop=1;jettySize=auto;html=1;exitX=0.5;exitY=1;exitDx=0;exitDy=0;entryX=1;entryY=0.5;entryDx=0;entryDy=0;" parent="1" source="-OBxYNr41z-snM1bFInR-16" target="-OBxYNr41z-snM1bFInR-31" edge="1">
          <mxGeometry relative="1" as="geometry" />
        </mxCell>
        <mxCell id="-OBxYNr41z-snM1bFInR-16" value="Cadastro Concluido" style="rounded=0;whiteSpace=wrap;html=1;fillColor=#dae8fc;strokeColor=#6c8ebf;" parent="1" vertex="1">
          <mxGeometry x="330" y="630" width="120" height="60" as="geometry" />
        </mxCell>
        <mxCell id="-OBxYNr41z-snM1bFInR-17" style="edgeStyle=orthogonalEdgeStyle;rounded=0;orthogonalLoop=1;jettySize=auto;html=1;" parent="1" source="-OBxYNr41z-snM1bFInR-18" target="-OBxYNr41z-snM1bFInR-23" edge="1">
          <mxGeometry relative="1" as="geometry" />
        </mxCell>
        <mxCell id="-OBxYNr41z-snM1bFInR-18" value="Buscar Materia Prima" style="rounded=0;whiteSpace=wrap;html=1;fillColor=#dae8fc;strokeColor=#6c8ebf;" parent="1" vertex="1">
          <mxGeometry x="160" y="310" width="120" height="60" as="geometry" />
        </mxCell>
        <mxCell id="-OBxYNr41z-snM1bFInR-19" style="edgeStyle=orthogonalEdgeStyle;rounded=0;orthogonalLoop=1;jettySize=auto;html=1;exitX=0.5;exitY=1;exitDx=0;exitDy=0;entryX=0.5;entryY=0;entryDx=0;entryDy=0;" parent="1" source="-OBxYNr41z-snM1bFInR-23" target="-OBxYNr41z-snM1bFInR-26" edge="1">
          <mxGeometry relative="1" as="geometry" />
        </mxCell>
        <mxCell id="-OBxYNr41z-snM1bFInR-20" style="edgeStyle=orthogonalEdgeStyle;rounded=0;orthogonalLoop=1;jettySize=auto;html=1;entryX=0;entryY=0.5;entryDx=0;entryDy=0;" parent="1" source="-OBxYNr41z-snM1bFInR-23" target="-OBxYNr41z-snM1bFInR-4" edge="1">
          <mxGeometry relative="1" as="geometry" />
        </mxCell>
        <mxCell id="-OBxYNr41z-snM1bFInR-21" style="edgeStyle=orthogonalEdgeStyle;rounded=0;orthogonalLoop=1;jettySize=auto;html=1;exitX=0;exitY=0.5;exitDx=0;exitDy=0;entryX=0;entryY=0.5;entryDx=0;entryDy=0;" parent="1" source="-OBxYNr41z-snM1bFInR-23" target="-OBxYNr41z-snM1bFInR-2" edge="1">
          <mxGeometry relative="1" as="geometry" />
        </mxCell>
        <mxCell id="-OBxYNr41z-snM1bFInR-22" value="Não" style="edgeLabel;html=1;align=center;verticalAlign=middle;resizable=0;points=[];" parent="-OBxYNr41z-snM1bFInR-21" vertex="1" connectable="0">
          <mxGeometry x="-0.2479" y="2" relative="1" as="geometry">
            <mxPoint as="offset" />
          </mxGeometry>
        </mxCell>
        <mxCell id="-OBxYNr41z-snM1bFInR-23" value="Materia Prima encontrada" style="rhombus;whiteSpace=wrap;html=1;fillColor=#dae8fc;strokeColor=#6c8ebf;" parent="1" vertex="1">
          <mxGeometry x="170" y="430" width="100" height="90" as="geometry" />
        </mxCell>
        <mxCell id="-OBxYNr41z-snM1bFInR-24" style="edgeStyle=orthogonalEdgeStyle;rounded=0;orthogonalLoop=1;jettySize=auto;html=1;" parent="1" source="-OBxYNr41z-snM1bFInR-26" target="-OBxYNr41z-snM1bFInR-30" edge="1">
          <mxGeometry relative="1" as="geometry" />
        </mxCell>
        <mxCell id="-OBxYNr41z-snM1bFInR-25" value="Não" style="edgeLabel;html=1;align=center;verticalAlign=middle;resizable=0;points=[];" parent="-OBxYNr41z-snM1bFInR-24" vertex="1" connectable="0">
          <mxGeometry x="-0.04" y="2" relative="1" as="geometry">
            <mxPoint as="offset" />
          </mxGeometry>
        </mxCell>
        <mxCell id="-OBxYNr41z-snM1bFInR-26" value="Excluir Materia Prima" style="rhombus;whiteSpace=wrap;html=1;fillColor=#dae8fc;strokeColor=#6c8ebf;" parent="1" vertex="1">
          <mxGeometry x="170" y="550" width="100" height="90" as="geometry" />
        </mxCell>
        <mxCell id="-OBxYNr41z-snM1bFInR-27" style="edgeStyle=orthogonalEdgeStyle;rounded=0;orthogonalLoop=1;jettySize=auto;html=1;exitX=0.5;exitY=1;exitDx=0;exitDy=0;entryX=0;entryY=0.5;entryDx=0;entryDy=0;" parent="1" source="-OBxYNr41z-snM1bFInR-30" target="-OBxYNr41z-snM1bFInR-31" edge="1">
          <mxGeometry relative="1" as="geometry" />
        </mxCell>
        <mxCell id="-OBxYNr41z-snM1bFInR-28" value="Não" style="edgeLabel;html=1;align=center;verticalAlign=middle;resizable=0;points=[];" parent="-OBxYNr41z-snM1bFInR-27" vertex="1" connectable="0">
          <mxGeometry x="-0.48" y="1" relative="1" as="geometry">
            <mxPoint as="offset" />
          </mxGeometry>
        </mxCell>
        <mxCell id="-OBxYNr41z-snM1bFInR-29" style="edgeStyle=orthogonalEdgeStyle;rounded=0;orthogonalLoop=1;jettySize=auto;html=1;exitX=0;exitY=0.5;exitDx=0;exitDy=0;" parent="1" source="-OBxYNr41z-snM1bFInR-30" edge="1">
          <mxGeometry relative="1" as="geometry">
            <mxPoint x="130" y="730" as="targetPoint" />
          </mxGeometry>
        </mxCell>
        <mxCell id="-OBxYNr41z-snM1bFInR-30" value="Atualizar materia Prima" style="rhombus;whiteSpace=wrap;html=1;fillColor=#dae8fc;strokeColor=#6c8ebf;" parent="1" vertex="1">
          <mxGeometry x="170" y="690" width="100" height="80" as="geometry" />
        </mxCell>
        <mxCell id="-OBxYNr41z-snM1bFInR-31" value="Fim" style="ellipse;whiteSpace=wrap;html=1;fillColor=#dae8fc;strokeColor=#6c8ebf;" parent="1" vertex="1">
          <mxGeometry x="250" y="760" width="120" height="80" as="geometry" />
        </mxCell>
        <mxCell id="-OBxYNr41z-snM1bFInR-32" style="edgeStyle=orthogonalEdgeStyle;rounded=0;orthogonalLoop=1;jettySize=auto;html=1;exitX=0.5;exitY=1;exitDx=0;exitDy=0;entryX=0.5;entryY=1;entryDx=0;entryDy=0;" parent="1" source="-OBxYNr41z-snM1bFInR-33" target="-OBxYNr41z-snM1bFInR-31" edge="1">
          <mxGeometry relative="1" as="geometry" />
        </mxCell>
        <mxCell id="-OBxYNr41z-snM1bFInR-33" value="Atualização Concluida" style="rounded=0;whiteSpace=wrap;html=1;fillColor=#dae8fc;strokeColor=#6c8ebf;" parent="1" vertex="1">
          <mxGeometry x="25" y="820" width="120" height="60" as="geometry" />
        </mxCell>
        <mxCell id="-OBxYNr41z-snM1bFInR-34" style="edgeStyle=orthogonalEdgeStyle;rounded=0;orthogonalLoop=1;jettySize=auto;html=1;exitX=0.5;exitY=1;exitDx=0;exitDy=0;" parent="1" source="-OBxYNr41z-snM1bFInR-36" edge="1">
          <mxGeometry relative="1" as="geometry">
            <mxPoint x="85" y="820" as="targetPoint" />
          </mxGeometry>
        </mxCell>
        <mxCell id="-OBxYNr41z-snM1bFInR-35" value="Sim" style="edgeLabel;html=1;align=center;verticalAlign=middle;resizable=0;points=[];" parent="-OBxYNr41z-snM1bFInR-34" vertex="1" connectable="0">
          <mxGeometry x="-0.0892" y="-3" relative="1" as="geometry">
            <mxPoint as="offset" />
          </mxGeometry>
        </mxCell>
        <mxCell id="-OBxYNr41z-snM1bFInR-36" value="Dados Validos" style="rhombus;whiteSpace=wrap;html=1;fillColor=#dae8fc;strokeColor=#6c8ebf;" parent="1" vertex="1">
          <mxGeometry x="40" y="690" width="90" height="80" as="geometry" />
        </mxCell>
      </root>
    </mxGraphModel>
  </diagram>
  <diagram id="1siQBhdoCEANpvvRpUQG" name="Página-4">
    <mxGraphModel dx="1434" dy="782" grid="1" gridSize="10" guides="1" tooltips="1" connect="1" arrows="1" fold="1" page="1" pageScale="1" pageWidth="827" pageHeight="1169" math="0" shadow="0">
      <root>
        <mxCell id="0" />
        <mxCell id="1" parent="0" />
        <mxCell id="7U2ki9GpmUCKqqcp1Dp3-1" value="" style="edgeStyle=orthogonalEdgeStyle;rounded=0;orthogonalLoop=1;jettySize=auto;html=1;" parent="1" source="7U2ki9GpmUCKqqcp1Dp3-2" target="7U2ki9GpmUCKqqcp1Dp3-4" edge="1">
          <mxGeometry relative="1" as="geometry" />
        </mxCell>
        <mxCell id="7U2ki9GpmUCKqqcp1Dp3-2" value="Inicio" style="ellipse;whiteSpace=wrap;html=1;fillColor=#dae8fc;strokeColor=#6c8ebf;" parent="1" vertex="1">
          <mxGeometry x="320" y="40" width="120" height="80" as="geometry" />
        </mxCell>
        <mxCell id="7U2ki9GpmUCKqqcp1Dp3-3" style="edgeStyle=orthogonalEdgeStyle;rounded=0;orthogonalLoop=1;jettySize=auto;html=1;exitX=0.5;exitY=1;exitDx=0;exitDy=0;" parent="1" source="7U2ki9GpmUCKqqcp1Dp3-4" edge="1">
          <mxGeometry relative="1" as="geometry">
            <mxPoint x="380" y="260" as="targetPoint" />
          </mxGeometry>
        </mxCell>
        <mxCell id="7U2ki9GpmUCKqqcp1Dp3-4" value="Listar Produto" style="rounded=0;whiteSpace=wrap;html=1;fillColor=#dae8fc;strokeColor=#6c8ebf;" parent="1" vertex="1">
          <mxGeometry x="320" y="160" width="120" height="60" as="geometry" />
        </mxCell>
        <mxCell id="7U2ki9GpmUCKqqcp1Dp3-5" value="Não" style="edgeStyle=orthogonalEdgeStyle;rounded=0;orthogonalLoop=1;jettySize=auto;html=1;" parent="1" source="7U2ki9GpmUCKqqcp1Dp3-6" edge="1">
          <mxGeometry relative="1" as="geometry">
            <mxPoint x="380" y="410" as="targetPoint" />
          </mxGeometry>
        </mxCell>
        <mxCell id="7U2ki9GpmUCKqqcp1Dp3-6" value="Produto Cadastrado" style="rhombus;whiteSpace=wrap;html=1;fillColor=#dae8fc;strokeColor=#6c8ebf;" parent="1" vertex="1">
          <mxGeometry x="320" y="270" width="115" height="100" as="geometry" />
        </mxCell>
        <mxCell id="7U2ki9GpmUCKqqcp1Dp3-7" style="edgeStyle=orthogonalEdgeStyle;rounded=0;orthogonalLoop=1;jettySize=auto;html=1;" parent="1" source="7U2ki9GpmUCKqqcp1Dp3-8" edge="1">
          <mxGeometry relative="1" as="geometry">
            <mxPoint x="385" y="500" as="targetPoint" />
          </mxGeometry>
        </mxCell>
        <mxCell id="7U2ki9GpmUCKqqcp1Dp3-8" value="Cadastrar Produto" style="rounded=0;whiteSpace=wrap;html=1;fillColor=#dae8fc;strokeColor=#6c8ebf;" parent="1" vertex="1">
          <mxGeometry x="325" y="410" width="120" height="60" as="geometry" />
        </mxCell>
        <mxCell id="7U2ki9GpmUCKqqcp1Dp3-9" value="Não" style="edgeStyle=orthogonalEdgeStyle;rounded=0;orthogonalLoop=1;jettySize=auto;html=1;" parent="1" source="7U2ki9GpmUCKqqcp1Dp3-10" edge="1">
          <mxGeometry relative="1" as="geometry">
            <mxPoint x="500" y="540" as="targetPoint" />
          </mxGeometry>
        </mxCell>
        <mxCell id="7U2ki9GpmUCKqqcp1Dp3-10" value="Dados validos" style="rhombus;whiteSpace=wrap;html=1;fillColor=#dae8fc;strokeColor=#6c8ebf;" parent="1" vertex="1">
          <mxGeometry x="330" y="500" width="120" height="80" as="geometry" />
        </mxCell>
        <mxCell id="7U2ki9GpmUCKqqcp1Dp3-11" value="Mostrar Erro" style="rounded=0;whiteSpace=wrap;html=1;fillColor=#dae8fc;strokeColor=#6c8ebf;" parent="1" vertex="1">
          <mxGeometry x="500" y="510" width="120" height="60" as="geometry" />
        </mxCell>
        <mxCell id="7U2ki9GpmUCKqqcp1Dp3-12" style="edgeStyle=orthogonalEdgeStyle;rounded=0;orthogonalLoop=1;jettySize=auto;html=1;exitX=0.5;exitY=0;exitDx=0;exitDy=0;entryX=0.992;entryY=0.15;entryDx=0;entryDy=0;entryPerimeter=0;" parent="1" source="7U2ki9GpmUCKqqcp1Dp3-11" target="7U2ki9GpmUCKqqcp1Dp3-8" edge="1">
          <mxGeometry relative="1" as="geometry" />
        </mxCell>
        <mxCell id="7U2ki9GpmUCKqqcp1Dp3-13" style="edgeStyle=orthogonalEdgeStyle;rounded=0;orthogonalLoop=1;jettySize=auto;html=1;exitX=0.5;exitY=1;exitDx=0;exitDy=0;entryX=0.464;entryY=0.167;entryDx=0;entryDy=0;entryPerimeter=0;" parent="1" source="7U2ki9GpmUCKqqcp1Dp3-10" edge="1">
          <mxGeometry relative="1" as="geometry">
            <mxPoint x="389.96000000000004" y="630.02" as="targetPoint" />
          </mxGeometry>
        </mxCell>
        <mxCell id="7U2ki9GpmUCKqqcp1Dp3-14" value="Sim" style="edgeLabel;html=1;align=center;verticalAlign=middle;resizable=0;points=[];" parent="7U2ki9GpmUCKqqcp1Dp3-13" vertex="1" connectable="0">
          <mxGeometry x="0.2073" relative="1" as="geometry">
            <mxPoint as="offset" />
          </mxGeometry>
        </mxCell>
        <mxCell id="7U2ki9GpmUCKqqcp1Dp3-15" style="edgeStyle=orthogonalEdgeStyle;rounded=0;orthogonalLoop=1;jettySize=auto;html=1;exitX=0.5;exitY=1;exitDx=0;exitDy=0;entryX=1;entryY=0.5;entryDx=0;entryDy=0;" parent="1" source="7U2ki9GpmUCKqqcp1Dp3-16" target="7U2ki9GpmUCKqqcp1Dp3-31" edge="1">
          <mxGeometry relative="1" as="geometry" />
        </mxCell>
        <mxCell id="7U2ki9GpmUCKqqcp1Dp3-16" value="Cadastro Concluido" style="rounded=0;whiteSpace=wrap;html=1;fillColor=#dae8fc;strokeColor=#6c8ebf;" parent="1" vertex="1">
          <mxGeometry x="330" y="630" width="120" height="60" as="geometry" />
        </mxCell>
        <mxCell id="7U2ki9GpmUCKqqcp1Dp3-17" style="edgeStyle=orthogonalEdgeStyle;rounded=0;orthogonalLoop=1;jettySize=auto;html=1;" parent="1" source="7U2ki9GpmUCKqqcp1Dp3-18" target="7U2ki9GpmUCKqqcp1Dp3-23" edge="1">
          <mxGeometry relative="1" as="geometry" />
        </mxCell>
        <mxCell id="7U2ki9GpmUCKqqcp1Dp3-18" value="Buscar Produto" style="rounded=0;whiteSpace=wrap;html=1;fillColor=#dae8fc;strokeColor=#6c8ebf;" parent="1" vertex="1">
          <mxGeometry x="160" y="310" width="120" height="60" as="geometry" />
        </mxCell>
        <mxCell id="7U2ki9GpmUCKqqcp1Dp3-19" style="edgeStyle=orthogonalEdgeStyle;rounded=0;orthogonalLoop=1;jettySize=auto;html=1;exitX=0.5;exitY=1;exitDx=0;exitDy=0;entryX=0.5;entryY=0;entryDx=0;entryDy=0;" parent="1" source="7U2ki9GpmUCKqqcp1Dp3-23" target="7U2ki9GpmUCKqqcp1Dp3-26" edge="1">
          <mxGeometry relative="1" as="geometry" />
        </mxCell>
        <mxCell id="7U2ki9GpmUCKqqcp1Dp3-20" style="edgeStyle=orthogonalEdgeStyle;rounded=0;orthogonalLoop=1;jettySize=auto;html=1;entryX=0;entryY=0.5;entryDx=0;entryDy=0;" parent="1" source="7U2ki9GpmUCKqqcp1Dp3-23" target="7U2ki9GpmUCKqqcp1Dp3-4" edge="1">
          <mxGeometry relative="1" as="geometry" />
        </mxCell>
        <mxCell id="7U2ki9GpmUCKqqcp1Dp3-21" style="edgeStyle=orthogonalEdgeStyle;rounded=0;orthogonalLoop=1;jettySize=auto;html=1;exitX=0;exitY=0.5;exitDx=0;exitDy=0;entryX=0;entryY=0.5;entryDx=0;entryDy=0;" parent="1" source="7U2ki9GpmUCKqqcp1Dp3-23" target="7U2ki9GpmUCKqqcp1Dp3-2" edge="1">
          <mxGeometry relative="1" as="geometry" />
        </mxCell>
        <mxCell id="7U2ki9GpmUCKqqcp1Dp3-22" value="Não" style="edgeLabel;html=1;align=center;verticalAlign=middle;resizable=0;points=[];" parent="7U2ki9GpmUCKqqcp1Dp3-21" vertex="1" connectable="0">
          <mxGeometry x="-0.2479" y="2" relative="1" as="geometry">
            <mxPoint as="offset" />
          </mxGeometry>
        </mxCell>
        <mxCell id="7U2ki9GpmUCKqqcp1Dp3-23" value="Produto Encontrado" style="rhombus;whiteSpace=wrap;html=1;fillColor=#dae8fc;strokeColor=#6c8ebf;" parent="1" vertex="1">
          <mxGeometry x="170" y="430" width="100" height="90" as="geometry" />
        </mxCell>
        <mxCell id="7U2ki9GpmUCKqqcp1Dp3-24" style="edgeStyle=orthogonalEdgeStyle;rounded=0;orthogonalLoop=1;jettySize=auto;html=1;" parent="1" source="7U2ki9GpmUCKqqcp1Dp3-26" target="7U2ki9GpmUCKqqcp1Dp3-30" edge="1">
          <mxGeometry relative="1" as="geometry" />
        </mxCell>
        <mxCell id="7U2ki9GpmUCKqqcp1Dp3-25" value="Não" style="edgeLabel;html=1;align=center;verticalAlign=middle;resizable=0;points=[];" parent="7U2ki9GpmUCKqqcp1Dp3-24" vertex="1" connectable="0">
          <mxGeometry x="-0.04" y="2" relative="1" as="geometry">
            <mxPoint as="offset" />
          </mxGeometry>
        </mxCell>
        <mxCell id="7U2ki9GpmUCKqqcp1Dp3-26" value="Excluir Produto" style="rhombus;whiteSpace=wrap;html=1;fillColor=#dae8fc;strokeColor=#6c8ebf;" parent="1" vertex="1">
          <mxGeometry x="170" y="550" width="100" height="90" as="geometry" />
        </mxCell>
        <mxCell id="7U2ki9GpmUCKqqcp1Dp3-27" style="edgeStyle=orthogonalEdgeStyle;rounded=0;orthogonalLoop=1;jettySize=auto;html=1;exitX=0.5;exitY=1;exitDx=0;exitDy=0;entryX=0;entryY=0.5;entryDx=0;entryDy=0;" parent="1" source="7U2ki9GpmUCKqqcp1Dp3-30" target="7U2ki9GpmUCKqqcp1Dp3-31" edge="1">
          <mxGeometry relative="1" as="geometry" />
        </mxCell>
        <mxCell id="7U2ki9GpmUCKqqcp1Dp3-28" value="Não" style="edgeLabel;html=1;align=center;verticalAlign=middle;resizable=0;points=[];" parent="7U2ki9GpmUCKqqcp1Dp3-27" vertex="1" connectable="0">
          <mxGeometry x="-0.48" y="1" relative="1" as="geometry">
            <mxPoint as="offset" />
          </mxGeometry>
        </mxCell>
        <mxCell id="7U2ki9GpmUCKqqcp1Dp3-29" style="edgeStyle=orthogonalEdgeStyle;rounded=0;orthogonalLoop=1;jettySize=auto;html=1;exitX=0;exitY=0.5;exitDx=0;exitDy=0;" parent="1" source="7U2ki9GpmUCKqqcp1Dp3-30" edge="1">
          <mxGeometry relative="1" as="geometry">
            <mxPoint x="130" y="730" as="targetPoint" />
          </mxGeometry>
        </mxCell>
        <mxCell id="7U2ki9GpmUCKqqcp1Dp3-30" value="Atualizar Produto" style="rhombus;whiteSpace=wrap;html=1;fillColor=#dae8fc;strokeColor=#6c8ebf;" parent="1" vertex="1">
          <mxGeometry x="170" y="690" width="100" height="80" as="geometry" />
        </mxCell>
        <mxCell id="7U2ki9GpmUCKqqcp1Dp3-31" value="Fim" style="ellipse;whiteSpace=wrap;html=1;fillColor=#dae8fc;strokeColor=#6c8ebf;" parent="1" vertex="1">
          <mxGeometry x="250" y="760" width="120" height="80" as="geometry" />
        </mxCell>
        <mxCell id="7U2ki9GpmUCKqqcp1Dp3-32" style="edgeStyle=orthogonalEdgeStyle;rounded=0;orthogonalLoop=1;jettySize=auto;html=1;exitX=0.5;exitY=1;exitDx=0;exitDy=0;entryX=0.5;entryY=1;entryDx=0;entryDy=0;" parent="1" source="7U2ki9GpmUCKqqcp1Dp3-33" target="7U2ki9GpmUCKqqcp1Dp3-31" edge="1">
          <mxGeometry relative="1" as="geometry" />
        </mxCell>
        <mxCell id="7U2ki9GpmUCKqqcp1Dp3-33" value="Atualização Concluida" style="rounded=0;whiteSpace=wrap;html=1;fillColor=#dae8fc;strokeColor=#6c8ebf;" parent="1" vertex="1">
          <mxGeometry x="25" y="820" width="120" height="60" as="geometry" />
        </mxCell>
        <mxCell id="7U2ki9GpmUCKqqcp1Dp3-34" style="edgeStyle=orthogonalEdgeStyle;rounded=0;orthogonalLoop=1;jettySize=auto;html=1;exitX=0.5;exitY=1;exitDx=0;exitDy=0;" parent="1" source="7U2ki9GpmUCKqqcp1Dp3-36" edge="1">
          <mxGeometry relative="1" as="geometry">
            <mxPoint x="85" y="820" as="targetPoint" />
          </mxGeometry>
        </mxCell>
        <mxCell id="7U2ki9GpmUCKqqcp1Dp3-35" value="Sim" style="edgeLabel;html=1;align=center;verticalAlign=middle;resizable=0;points=[];" parent="7U2ki9GpmUCKqqcp1Dp3-34" vertex="1" connectable="0">
          <mxGeometry x="-0.0892" y="-3" relative="1" as="geometry">
            <mxPoint as="offset" />
          </mxGeometry>
        </mxCell>
        <mxCell id="7U2ki9GpmUCKqqcp1Dp3-36" value="Dados Validos" style="rhombus;whiteSpace=wrap;html=1;fillColor=#dae8fc;strokeColor=#6c8ebf;" parent="1" vertex="1">
          <mxGeometry x="40" y="690" width="90" height="80" as="geometry" />
        </mxCell>
      </root>
    </mxGraphModel>
  </diagram>
  <diagram id="XhWtSnriIrwq6FHAk937" name="Página-6">
    <mxGraphModel dx="1434" dy="782" grid="1" gridSize="10" guides="1" tooltips="1" connect="1" arrows="1" fold="1" page="1" pageScale="1" pageWidth="827" pageHeight="1169" math="0" shadow="0">
      <root>
        <mxCell id="0" />
        <mxCell id="1" parent="0" />
        <mxCell id="nWC40fIB4IbipufS2QHs-1" value="" style="edgeStyle=orthogonalEdgeStyle;rounded=0;orthogonalLoop=1;jettySize=auto;html=1;" parent="1" source="nWC40fIB4IbipufS2QHs-2" target="nWC40fIB4IbipufS2QHs-4" edge="1">
          <mxGeometry relative="1" as="geometry" />
        </mxCell>
        <mxCell id="nWC40fIB4IbipufS2QHs-2" value="Inicio" style="ellipse;whiteSpace=wrap;html=1;fillColor=#dae8fc;strokeColor=#6c8ebf;" parent="1" vertex="1">
          <mxGeometry x="320" y="40" width="120" height="80" as="geometry" />
        </mxCell>
        <mxCell id="nWC40fIB4IbipufS2QHs-3" style="edgeStyle=orthogonalEdgeStyle;rounded=0;orthogonalLoop=1;jettySize=auto;html=1;exitX=0.5;exitY=1;exitDx=0;exitDy=0;" parent="1" source="nWC40fIB4IbipufS2QHs-4" edge="1">
          <mxGeometry relative="1" as="geometry">
            <mxPoint x="380" y="260" as="targetPoint" />
          </mxGeometry>
        </mxCell>
        <mxCell id="nWC40fIB4IbipufS2QHs-4" value="Listar Pedido" style="rounded=0;whiteSpace=wrap;html=1;fillColor=#dae8fc;strokeColor=#6c8ebf;" parent="1" vertex="1">
          <mxGeometry x="320" y="160" width="120" height="60" as="geometry" />
        </mxCell>
        <mxCell id="nWC40fIB4IbipufS2QHs-5" value="Não" style="edgeStyle=orthogonalEdgeStyle;rounded=0;orthogonalLoop=1;jettySize=auto;html=1;" parent="1" source="nWC40fIB4IbipufS2QHs-6" edge="1">
          <mxGeometry relative="1" as="geometry">
            <mxPoint x="380" y="410" as="targetPoint" />
          </mxGeometry>
        </mxCell>
        <mxCell id="nWC40fIB4IbipufS2QHs-6" value="Pedido Cadastrado" style="rhombus;whiteSpace=wrap;html=1;fillColor=#dae8fc;strokeColor=#6c8ebf;" parent="1" vertex="1">
          <mxGeometry x="320" y="270" width="115" height="100" as="geometry" />
        </mxCell>
        <mxCell id="nWC40fIB4IbipufS2QHs-7" style="edgeStyle=orthogonalEdgeStyle;rounded=0;orthogonalLoop=1;jettySize=auto;html=1;" parent="1" source="nWC40fIB4IbipufS2QHs-8" edge="1">
          <mxGeometry relative="1" as="geometry">
            <mxPoint x="385" y="500" as="targetPoint" />
          </mxGeometry>
        </mxCell>
        <mxCell id="nWC40fIB4IbipufS2QHs-8" value="Cadastrar Pedido" style="rounded=0;whiteSpace=wrap;html=1;fillColor=#dae8fc;strokeColor=#6c8ebf;" parent="1" vertex="1">
          <mxGeometry x="325" y="410" width="120" height="60" as="geometry" />
        </mxCell>
        <mxCell id="nWC40fIB4IbipufS2QHs-9" value="Não" style="edgeStyle=orthogonalEdgeStyle;rounded=0;orthogonalLoop=1;jettySize=auto;html=1;" parent="1" source="nWC40fIB4IbipufS2QHs-10" edge="1">
          <mxGeometry relative="1" as="geometry">
            <mxPoint x="500" y="540" as="targetPoint" />
          </mxGeometry>
        </mxCell>
        <mxCell id="nWC40fIB4IbipufS2QHs-10" value="Dados validos" style="rhombus;whiteSpace=wrap;html=1;fillColor=#dae8fc;strokeColor=#6c8ebf;" parent="1" vertex="1">
          <mxGeometry x="330" y="500" width="120" height="80" as="geometry" />
        </mxCell>
        <mxCell id="nWC40fIB4IbipufS2QHs-11" value="Mostrar Erro" style="rounded=0;whiteSpace=wrap;html=1;fillColor=#dae8fc;strokeColor=#6c8ebf;" parent="1" vertex="1">
          <mxGeometry x="500" y="510" width="120" height="60" as="geometry" />
        </mxCell>
        <mxCell id="nWC40fIB4IbipufS2QHs-12" style="edgeStyle=orthogonalEdgeStyle;rounded=0;orthogonalLoop=1;jettySize=auto;html=1;exitX=0.5;exitY=0;exitDx=0;exitDy=0;entryX=0.992;entryY=0.15;entryDx=0;entryDy=0;entryPerimeter=0;" parent="1" source="nWC40fIB4IbipufS2QHs-11" target="nWC40fIB4IbipufS2QHs-8" edge="1">
          <mxGeometry relative="1" as="geometry" />
        </mxCell>
        <mxCell id="nWC40fIB4IbipufS2QHs-13" style="edgeStyle=orthogonalEdgeStyle;rounded=0;orthogonalLoop=1;jettySize=auto;html=1;exitX=0.5;exitY=1;exitDx=0;exitDy=0;entryX=0.464;entryY=0.167;entryDx=0;entryDy=0;entryPerimeter=0;" parent="1" source="nWC40fIB4IbipufS2QHs-10" edge="1">
          <mxGeometry relative="1" as="geometry">
            <mxPoint x="389.96000000000004" y="630.02" as="targetPoint" />
          </mxGeometry>
        </mxCell>
        <mxCell id="nWC40fIB4IbipufS2QHs-14" value="Sim" style="edgeLabel;html=1;align=center;verticalAlign=middle;resizable=0;points=[];" parent="nWC40fIB4IbipufS2QHs-13" vertex="1" connectable="0">
          <mxGeometry x="0.2073" relative="1" as="geometry">
            <mxPoint as="offset" />
          </mxGeometry>
        </mxCell>
        <mxCell id="nWC40fIB4IbipufS2QHs-15" style="edgeStyle=orthogonalEdgeStyle;rounded=0;orthogonalLoop=1;jettySize=auto;html=1;exitX=0.5;exitY=1;exitDx=0;exitDy=0;entryX=1;entryY=0.5;entryDx=0;entryDy=0;" parent="1" source="nWC40fIB4IbipufS2QHs-16" target="nWC40fIB4IbipufS2QHs-31" edge="1">
          <mxGeometry relative="1" as="geometry" />
        </mxCell>
        <mxCell id="nWC40fIB4IbipufS2QHs-16" value="Cadastro Concluido" style="rounded=0;whiteSpace=wrap;html=1;fillColor=#dae8fc;strokeColor=#6c8ebf;" parent="1" vertex="1">
          <mxGeometry x="330" y="630" width="120" height="60" as="geometry" />
        </mxCell>
        <mxCell id="nWC40fIB4IbipufS2QHs-17" style="edgeStyle=orthogonalEdgeStyle;rounded=0;orthogonalLoop=1;jettySize=auto;html=1;" parent="1" source="nWC40fIB4IbipufS2QHs-18" target="nWC40fIB4IbipufS2QHs-23" edge="1">
          <mxGeometry relative="1" as="geometry" />
        </mxCell>
        <mxCell id="nWC40fIB4IbipufS2QHs-18" value="Buscar Pedido" style="rounded=0;whiteSpace=wrap;html=1;fillColor=#dae8fc;strokeColor=#6c8ebf;" parent="1" vertex="1">
          <mxGeometry x="160" y="310" width="120" height="60" as="geometry" />
        </mxCell>
        <mxCell id="nWC40fIB4IbipufS2QHs-19" style="edgeStyle=orthogonalEdgeStyle;rounded=0;orthogonalLoop=1;jettySize=auto;html=1;exitX=0.5;exitY=1;exitDx=0;exitDy=0;entryX=0.5;entryY=0;entryDx=0;entryDy=0;" parent="1" source="nWC40fIB4IbipufS2QHs-23" target="nWC40fIB4IbipufS2QHs-26" edge="1">
          <mxGeometry relative="1" as="geometry" />
        </mxCell>
        <mxCell id="nWC40fIB4IbipufS2QHs-20" style="edgeStyle=orthogonalEdgeStyle;rounded=0;orthogonalLoop=1;jettySize=auto;html=1;entryX=0;entryY=0.5;entryDx=0;entryDy=0;" parent="1" source="nWC40fIB4IbipufS2QHs-23" target="nWC40fIB4IbipufS2QHs-4" edge="1">
          <mxGeometry relative="1" as="geometry" />
        </mxCell>
        <mxCell id="nWC40fIB4IbipufS2QHs-21" style="edgeStyle=orthogonalEdgeStyle;rounded=0;orthogonalLoop=1;jettySize=auto;html=1;exitX=0;exitY=0.5;exitDx=0;exitDy=0;entryX=0;entryY=0.5;entryDx=0;entryDy=0;" parent="1" source="nWC40fIB4IbipufS2QHs-23" target="nWC40fIB4IbipufS2QHs-2" edge="1">
          <mxGeometry relative="1" as="geometry" />
        </mxCell>
        <mxCell id="nWC40fIB4IbipufS2QHs-22" value="Não" style="edgeLabel;html=1;align=center;verticalAlign=middle;resizable=0;points=[];" parent="nWC40fIB4IbipufS2QHs-21" vertex="1" connectable="0">
          <mxGeometry x="-0.2479" y="2" relative="1" as="geometry">
            <mxPoint as="offset" />
          </mxGeometry>
        </mxCell>
        <mxCell id="nWC40fIB4IbipufS2QHs-23" value="Pedido Encontrado" style="rhombus;whiteSpace=wrap;html=1;fillColor=#dae8fc;strokeColor=#6c8ebf;" parent="1" vertex="1">
          <mxGeometry x="170" y="430" width="100" height="90" as="geometry" />
        </mxCell>
        <mxCell id="nWC40fIB4IbipufS2QHs-24" style="edgeStyle=orthogonalEdgeStyle;rounded=0;orthogonalLoop=1;jettySize=auto;html=1;" parent="1" source="nWC40fIB4IbipufS2QHs-26" target="nWC40fIB4IbipufS2QHs-30" edge="1">
          <mxGeometry relative="1" as="geometry" />
        </mxCell>
        <mxCell id="nWC40fIB4IbipufS2QHs-25" value="Não" style="edgeLabel;html=1;align=center;verticalAlign=middle;resizable=0;points=[];" parent="nWC40fIB4IbipufS2QHs-24" vertex="1" connectable="0">
          <mxGeometry x="-0.04" y="2" relative="1" as="geometry">
            <mxPoint as="offset" />
          </mxGeometry>
        </mxCell>
        <mxCell id="nWC40fIB4IbipufS2QHs-26" value="Excluir Pedido" style="rhombus;whiteSpace=wrap;html=1;fillColor=#dae8fc;strokeColor=#6c8ebf;" parent="1" vertex="1">
          <mxGeometry x="170" y="550" width="100" height="90" as="geometry" />
        </mxCell>
        <mxCell id="nWC40fIB4IbipufS2QHs-27" style="edgeStyle=orthogonalEdgeStyle;rounded=0;orthogonalLoop=1;jettySize=auto;html=1;exitX=0.5;exitY=1;exitDx=0;exitDy=0;entryX=0;entryY=0.5;entryDx=0;entryDy=0;" parent="1" source="nWC40fIB4IbipufS2QHs-30" target="nWC40fIB4IbipufS2QHs-31" edge="1">
          <mxGeometry relative="1" as="geometry" />
        </mxCell>
        <mxCell id="nWC40fIB4IbipufS2QHs-28" value="Não" style="edgeLabel;html=1;align=center;verticalAlign=middle;resizable=0;points=[];" parent="nWC40fIB4IbipufS2QHs-27" vertex="1" connectable="0">
          <mxGeometry x="-0.48" y="1" relative="1" as="geometry">
            <mxPoint as="offset" />
          </mxGeometry>
        </mxCell>
        <mxCell id="nWC40fIB4IbipufS2QHs-29" style="edgeStyle=orthogonalEdgeStyle;rounded=0;orthogonalLoop=1;jettySize=auto;html=1;exitX=0;exitY=0.5;exitDx=0;exitDy=0;" parent="1" source="nWC40fIB4IbipufS2QHs-30" edge="1">
          <mxGeometry relative="1" as="geometry">
            <mxPoint x="130" y="730" as="targetPoint" />
          </mxGeometry>
        </mxCell>
        <mxCell id="nWC40fIB4IbipufS2QHs-30" value="Atualizar Pedido" style="rhombus;whiteSpace=wrap;html=1;fillColor=#dae8fc;strokeColor=#6c8ebf;" parent="1" vertex="1">
          <mxGeometry x="170" y="690" width="100" height="80" as="geometry" />
        </mxCell>
        <mxCell id="nWC40fIB4IbipufS2QHs-31" value="Fim" style="ellipse;whiteSpace=wrap;html=1;fillColor=#dae8fc;strokeColor=#6c8ebf;" parent="1" vertex="1">
          <mxGeometry x="250" y="760" width="120" height="80" as="geometry" />
        </mxCell>
        <mxCell id="nWC40fIB4IbipufS2QHs-32" style="edgeStyle=orthogonalEdgeStyle;rounded=0;orthogonalLoop=1;jettySize=auto;html=1;exitX=0.5;exitY=1;exitDx=0;exitDy=0;entryX=0.5;entryY=1;entryDx=0;entryDy=0;" parent="1" source="nWC40fIB4IbipufS2QHs-33" target="nWC40fIB4IbipufS2QHs-31" edge="1">
          <mxGeometry relative="1" as="geometry" />
        </mxCell>
        <mxCell id="nWC40fIB4IbipufS2QHs-33" value="Atualização Concluida" style="rounded=0;whiteSpace=wrap;html=1;fillColor=#dae8fc;strokeColor=#6c8ebf;" parent="1" vertex="1">
          <mxGeometry x="25" y="820" width="120" height="60" as="geometry" />
        </mxCell>
        <mxCell id="nWC40fIB4IbipufS2QHs-34" style="edgeStyle=orthogonalEdgeStyle;rounded=0;orthogonalLoop=1;jettySize=auto;html=1;exitX=0.5;exitY=1;exitDx=0;exitDy=0;" parent="1" source="nWC40fIB4IbipufS2QHs-36" edge="1">
          <mxGeometry relative="1" as="geometry">
            <mxPoint x="85" y="820" as="targetPoint" />
          </mxGeometry>
        </mxCell>
        <mxCell id="nWC40fIB4IbipufS2QHs-35" value="Sim" style="edgeLabel;html=1;align=center;verticalAlign=middle;resizable=0;points=[];" parent="nWC40fIB4IbipufS2QHs-34" vertex="1" connectable="0">
          <mxGeometry x="-0.0892" y="-3" relative="1" as="geometry">
            <mxPoint as="offset" />
          </mxGeometry>
        </mxCell>
        <mxCell id="nWC40fIB4IbipufS2QHs-36" value="Dados Validos" style="rhombus;whiteSpace=wrap;html=1;fillColor=#dae8fc;strokeColor=#6c8ebf;" parent="1" vertex="1">
          <mxGeometry x="40" y="690" width="90" height="80" as="geometry" />
        </mxCell>
      </root>
    </mxGraphModel>
  </diagram>
  <diagram id="KZD2dg6GXYfXqq91NPPh" name="Página-7">
    <mxGraphModel dx="1434" dy="782" grid="1" gridSize="10" guides="1" tooltips="1" connect="1" arrows="1" fold="1" page="1" pageScale="1" pageWidth="827" pageHeight="1169" math="0" shadow="0">
      <root>
        <mxCell id="0" />
        <mxCell id="1" parent="0" />
        <mxCell id="VgcGkHGK5ncb3x7KQU1V-1" value="" style="edgeStyle=orthogonalEdgeStyle;rounded=0;orthogonalLoop=1;jettySize=auto;html=1;" parent="1" source="VgcGkHGK5ncb3x7KQU1V-2" target="VgcGkHGK5ncb3x7KQU1V-4" edge="1">
          <mxGeometry relative="1" as="geometry" />
        </mxCell>
        <mxCell id="VgcGkHGK5ncb3x7KQU1V-2" value="Inicio" style="ellipse;whiteSpace=wrap;html=1;fillColor=#dae8fc;strokeColor=#6c8ebf;" parent="1" vertex="1">
          <mxGeometry x="320" y="40" width="120" height="80" as="geometry" />
        </mxCell>
        <mxCell id="VgcGkHGK5ncb3x7KQU1V-3" style="edgeStyle=orthogonalEdgeStyle;rounded=0;orthogonalLoop=1;jettySize=auto;html=1;exitX=0.5;exitY=1;exitDx=0;exitDy=0;" parent="1" source="VgcGkHGK5ncb3x7KQU1V-4" edge="1">
          <mxGeometry relative="1" as="geometry">
            <mxPoint x="380" y="260" as="targetPoint" />
          </mxGeometry>
        </mxCell>
        <mxCell id="VgcGkHGK5ncb3x7KQU1V-4" value="Listar Corte" style="rounded=0;whiteSpace=wrap;html=1;fillColor=#dae8fc;strokeColor=#6c8ebf;" parent="1" vertex="1">
          <mxGeometry x="320" y="160" width="120" height="60" as="geometry" />
        </mxCell>
        <mxCell id="VgcGkHGK5ncb3x7KQU1V-5" value="Não" style="edgeStyle=orthogonalEdgeStyle;rounded=0;orthogonalLoop=1;jettySize=auto;html=1;" parent="1" source="VgcGkHGK5ncb3x7KQU1V-6" edge="1">
          <mxGeometry relative="1" as="geometry">
            <mxPoint x="380" y="410" as="targetPoint" />
          </mxGeometry>
        </mxCell>
        <mxCell id="VgcGkHGK5ncb3x7KQU1V-6" value="Corte Cadastrado" style="rhombus;whiteSpace=wrap;html=1;fillColor=#dae8fc;strokeColor=#6c8ebf;" parent="1" vertex="1">
          <mxGeometry x="320" y="270" width="115" height="100" as="geometry" />
        </mxCell>
        <mxCell id="VgcGkHGK5ncb3x7KQU1V-7" style="edgeStyle=orthogonalEdgeStyle;rounded=0;orthogonalLoop=1;jettySize=auto;html=1;" parent="1" source="VgcGkHGK5ncb3x7KQU1V-8" edge="1">
          <mxGeometry relative="1" as="geometry">
            <mxPoint x="385" y="500" as="targetPoint" />
          </mxGeometry>
        </mxCell>
        <mxCell id="VgcGkHGK5ncb3x7KQU1V-8" value="Cadastrar Corte" style="rounded=0;whiteSpace=wrap;html=1;fillColor=#dae8fc;strokeColor=#6c8ebf;" parent="1" vertex="1">
          <mxGeometry x="325" y="410" width="120" height="60" as="geometry" />
        </mxCell>
        <mxCell id="VgcGkHGK5ncb3x7KQU1V-9" value="Não" style="edgeStyle=orthogonalEdgeStyle;rounded=0;orthogonalLoop=1;jettySize=auto;html=1;" parent="1" source="VgcGkHGK5ncb3x7KQU1V-10" edge="1">
          <mxGeometry relative="1" as="geometry">
            <mxPoint x="500" y="540" as="targetPoint" />
          </mxGeometry>
        </mxCell>
        <mxCell id="VgcGkHGK5ncb3x7KQU1V-10" value="Dados validos" style="rhombus;whiteSpace=wrap;html=1;fillColor=#dae8fc;strokeColor=#6c8ebf;" parent="1" vertex="1">
          <mxGeometry x="330" y="500" width="120" height="80" as="geometry" />
        </mxCell>
        <mxCell id="VgcGkHGK5ncb3x7KQU1V-11" value="Mostrar Erro" style="rounded=0;whiteSpace=wrap;html=1;fillColor=#dae8fc;strokeColor=#6c8ebf;" parent="1" vertex="1">
          <mxGeometry x="500" y="510" width="120" height="60" as="geometry" />
        </mxCell>
        <mxCell id="VgcGkHGK5ncb3x7KQU1V-12" style="edgeStyle=orthogonalEdgeStyle;rounded=0;orthogonalLoop=1;jettySize=auto;html=1;exitX=0.5;exitY=0;exitDx=0;exitDy=0;entryX=0.992;entryY=0.15;entryDx=0;entryDy=0;entryPerimeter=0;" parent="1" source="VgcGkHGK5ncb3x7KQU1V-11" target="VgcGkHGK5ncb3x7KQU1V-8" edge="1">
          <mxGeometry relative="1" as="geometry" />
        </mxCell>
        <mxCell id="VgcGkHGK5ncb3x7KQU1V-13" style="edgeStyle=orthogonalEdgeStyle;rounded=0;orthogonalLoop=1;jettySize=auto;html=1;exitX=0.5;exitY=1;exitDx=0;exitDy=0;entryX=0.464;entryY=0.167;entryDx=0;entryDy=0;entryPerimeter=0;" parent="1" source="VgcGkHGK5ncb3x7KQU1V-10" edge="1">
          <mxGeometry relative="1" as="geometry">
            <mxPoint x="389.96000000000004" y="630.02" as="targetPoint" />
          </mxGeometry>
        </mxCell>
        <mxCell id="VgcGkHGK5ncb3x7KQU1V-14" value="Sim" style="edgeLabel;html=1;align=center;verticalAlign=middle;resizable=0;points=[];" parent="VgcGkHGK5ncb3x7KQU1V-13" vertex="1" connectable="0">
          <mxGeometry x="0.2073" relative="1" as="geometry">
            <mxPoint as="offset" />
          </mxGeometry>
        </mxCell>
        <mxCell id="VgcGkHGK5ncb3x7KQU1V-15" style="edgeStyle=orthogonalEdgeStyle;rounded=0;orthogonalLoop=1;jettySize=auto;html=1;exitX=0.5;exitY=1;exitDx=0;exitDy=0;entryX=1;entryY=0.5;entryDx=0;entryDy=0;" parent="1" source="VgcGkHGK5ncb3x7KQU1V-16" target="VgcGkHGK5ncb3x7KQU1V-31" edge="1">
          <mxGeometry relative="1" as="geometry" />
        </mxCell>
        <mxCell id="VgcGkHGK5ncb3x7KQU1V-16" value="Cadastro Concluido" style="rounded=0;whiteSpace=wrap;html=1;fillColor=#dae8fc;strokeColor=#6c8ebf;" parent="1" vertex="1">
          <mxGeometry x="330" y="630" width="120" height="60" as="geometry" />
        </mxCell>
        <mxCell id="VgcGkHGK5ncb3x7KQU1V-17" style="edgeStyle=orthogonalEdgeStyle;rounded=0;orthogonalLoop=1;jettySize=auto;html=1;" parent="1" source="VgcGkHGK5ncb3x7KQU1V-18" target="VgcGkHGK5ncb3x7KQU1V-23" edge="1">
          <mxGeometry relative="1" as="geometry" />
        </mxCell>
        <mxCell id="VgcGkHGK5ncb3x7KQU1V-18" value="Buscar Corte" style="rounded=0;whiteSpace=wrap;html=1;fillColor=#dae8fc;strokeColor=#6c8ebf;" parent="1" vertex="1">
          <mxGeometry x="160" y="310" width="120" height="60" as="geometry" />
        </mxCell>
        <mxCell id="VgcGkHGK5ncb3x7KQU1V-19" style="edgeStyle=orthogonalEdgeStyle;rounded=0;orthogonalLoop=1;jettySize=auto;html=1;exitX=0.5;exitY=1;exitDx=0;exitDy=0;entryX=0.5;entryY=0;entryDx=0;entryDy=0;" parent="1" source="VgcGkHGK5ncb3x7KQU1V-23" target="VgcGkHGK5ncb3x7KQU1V-26" edge="1">
          <mxGeometry relative="1" as="geometry" />
        </mxCell>
        <mxCell id="VgcGkHGK5ncb3x7KQU1V-20" style="edgeStyle=orthogonalEdgeStyle;rounded=0;orthogonalLoop=1;jettySize=auto;html=1;entryX=0;entryY=0.5;entryDx=0;entryDy=0;" parent="1" source="VgcGkHGK5ncb3x7KQU1V-23" target="VgcGkHGK5ncb3x7KQU1V-4" edge="1">
          <mxGeometry relative="1" as="geometry" />
        </mxCell>
        <mxCell id="VgcGkHGK5ncb3x7KQU1V-21" style="edgeStyle=orthogonalEdgeStyle;rounded=0;orthogonalLoop=1;jettySize=auto;html=1;exitX=0;exitY=0.5;exitDx=0;exitDy=0;entryX=0;entryY=0.5;entryDx=0;entryDy=0;" parent="1" source="VgcGkHGK5ncb3x7KQU1V-23" target="VgcGkHGK5ncb3x7KQU1V-2" edge="1">
          <mxGeometry relative="1" as="geometry" />
        </mxCell>
        <mxCell id="VgcGkHGK5ncb3x7KQU1V-22" value="Não" style="edgeLabel;html=1;align=center;verticalAlign=middle;resizable=0;points=[];" parent="VgcGkHGK5ncb3x7KQU1V-21" vertex="1" connectable="0">
          <mxGeometry x="-0.2479" y="2" relative="1" as="geometry">
            <mxPoint as="offset" />
          </mxGeometry>
        </mxCell>
        <mxCell id="VgcGkHGK5ncb3x7KQU1V-23" value="Corte Encontrado" style="rhombus;whiteSpace=wrap;html=1;fillColor=#dae8fc;strokeColor=#6c8ebf;" parent="1" vertex="1">
          <mxGeometry x="170" y="430" width="100" height="90" as="geometry" />
        </mxCell>
        <mxCell id="VgcGkHGK5ncb3x7KQU1V-24" style="edgeStyle=orthogonalEdgeStyle;rounded=0;orthogonalLoop=1;jettySize=auto;html=1;" parent="1" source="VgcGkHGK5ncb3x7KQU1V-26" target="VgcGkHGK5ncb3x7KQU1V-30" edge="1">
          <mxGeometry relative="1" as="geometry" />
        </mxCell>
        <mxCell id="VgcGkHGK5ncb3x7KQU1V-25" value="Não" style="edgeLabel;html=1;align=center;verticalAlign=middle;resizable=0;points=[];" parent="VgcGkHGK5ncb3x7KQU1V-24" vertex="1" connectable="0">
          <mxGeometry x="-0.04" y="2" relative="1" as="geometry">
            <mxPoint as="offset" />
          </mxGeometry>
        </mxCell>
        <mxCell id="VgcGkHGK5ncb3x7KQU1V-26" value="Excluir Corte" style="rhombus;whiteSpace=wrap;html=1;fillColor=#dae8fc;strokeColor=#6c8ebf;" parent="1" vertex="1">
          <mxGeometry x="170" y="550" width="100" height="90" as="geometry" />
        </mxCell>
        <mxCell id="VgcGkHGK5ncb3x7KQU1V-27" style="edgeStyle=orthogonalEdgeStyle;rounded=0;orthogonalLoop=1;jettySize=auto;html=1;exitX=0.5;exitY=1;exitDx=0;exitDy=0;entryX=0;entryY=0.5;entryDx=0;entryDy=0;" parent="1" source="VgcGkHGK5ncb3x7KQU1V-30" target="VgcGkHGK5ncb3x7KQU1V-31" edge="1">
          <mxGeometry relative="1" as="geometry" />
        </mxCell>
        <mxCell id="VgcGkHGK5ncb3x7KQU1V-28" value="Não" style="edgeLabel;html=1;align=center;verticalAlign=middle;resizable=0;points=[];" parent="VgcGkHGK5ncb3x7KQU1V-27" vertex="1" connectable="0">
          <mxGeometry x="-0.48" y="1" relative="1" as="geometry">
            <mxPoint as="offset" />
          </mxGeometry>
        </mxCell>
        <mxCell id="VgcGkHGK5ncb3x7KQU1V-29" style="edgeStyle=orthogonalEdgeStyle;rounded=0;orthogonalLoop=1;jettySize=auto;html=1;exitX=0;exitY=0.5;exitDx=0;exitDy=0;" parent="1" source="VgcGkHGK5ncb3x7KQU1V-30" edge="1">
          <mxGeometry relative="1" as="geometry">
            <mxPoint x="130" y="730" as="targetPoint" />
          </mxGeometry>
        </mxCell>
        <mxCell id="VgcGkHGK5ncb3x7KQU1V-30" value="Atualizar Corte" style="rhombus;whiteSpace=wrap;html=1;fillColor=#dae8fc;strokeColor=#6c8ebf;" parent="1" vertex="1">
          <mxGeometry x="170" y="690" width="100" height="80" as="geometry" />
        </mxCell>
        <mxCell id="VgcGkHGK5ncb3x7KQU1V-31" value="Fim" style="ellipse;whiteSpace=wrap;html=1;fillColor=#dae8fc;strokeColor=#6c8ebf;" parent="1" vertex="1">
          <mxGeometry x="250" y="760" width="120" height="80" as="geometry" />
        </mxCell>
        <mxCell id="VgcGkHGK5ncb3x7KQU1V-32" style="edgeStyle=orthogonalEdgeStyle;rounded=0;orthogonalLoop=1;jettySize=auto;html=1;exitX=0.5;exitY=1;exitDx=0;exitDy=0;entryX=0.5;entryY=1;entryDx=0;entryDy=0;" parent="1" source="VgcGkHGK5ncb3x7KQU1V-33" target="VgcGkHGK5ncb3x7KQU1V-31" edge="1">
          <mxGeometry relative="1" as="geometry" />
        </mxCell>
        <mxCell id="VgcGkHGK5ncb3x7KQU1V-33" value="Atualização Concluida" style="rounded=0;whiteSpace=wrap;html=1;fillColor=#dae8fc;strokeColor=#6c8ebf;" parent="1" vertex="1">
          <mxGeometry x="25" y="820" width="120" height="60" as="geometry" />
        </mxCell>
        <mxCell id="VgcGkHGK5ncb3x7KQU1V-34" style="edgeStyle=orthogonalEdgeStyle;rounded=0;orthogonalLoop=1;jettySize=auto;html=1;exitX=0.5;exitY=1;exitDx=0;exitDy=0;" parent="1" source="VgcGkHGK5ncb3x7KQU1V-36" edge="1">
          <mxGeometry relative="1" as="geometry">
            <mxPoint x="85" y="820" as="targetPoint" />
          </mxGeometry>
        </mxCell>
        <mxCell id="VgcGkHGK5ncb3x7KQU1V-35" value="Sim" style="edgeLabel;html=1;align=center;verticalAlign=middle;resizable=0;points=[];" parent="VgcGkHGK5ncb3x7KQU1V-34" vertex="1" connectable="0">
          <mxGeometry x="-0.0892" y="-3" relative="1" as="geometry">
            <mxPoint as="offset" />
          </mxGeometry>
        </mxCell>
        <mxCell id="VgcGkHGK5ncb3x7KQU1V-36" value="Dados Validos" style="rhombus;whiteSpace=wrap;html=1;fillColor=#dae8fc;strokeColor=#6c8ebf;" parent="1" vertex="1">
          <mxGeometry x="40" y="690" width="90" height="80" as="geometry" />
        </mxCell>
      </root>
    </mxGraphModel>
  </diagram>
  <diagram id="amp4iMq54nAIzzcevUAJ" name="Página-8">
    <mxGraphModel dx="1434" dy="782" grid="1" gridSize="10" guides="1" tooltips="1" connect="1" arrows="1" fold="1" page="1" pageScale="1" pageWidth="827" pageHeight="1169" math="0" shadow="0">
      <root>
        <mxCell id="0" />
        <mxCell id="1" parent="0" />
        <mxCell id="HthPhOuTZ1r7zCdvfb5Y-1" value="" style="edgeStyle=orthogonalEdgeStyle;rounded=0;orthogonalLoop=1;jettySize=auto;html=1;" parent="1" source="HthPhOuTZ1r7zCdvfb5Y-2" target="HthPhOuTZ1r7zCdvfb5Y-4" edge="1">
          <mxGeometry relative="1" as="geometry" />
        </mxCell>
        <mxCell id="HthPhOuTZ1r7zCdvfb5Y-2" value="Inicio" style="ellipse;whiteSpace=wrap;html=1;fillColor=#dae8fc;strokeColor=#6c8ebf;" parent="1" vertex="1">
          <mxGeometry x="320" y="40" width="120" height="80" as="geometry" />
        </mxCell>
        <mxCell id="HthPhOuTZ1r7zCdvfb5Y-39" style="edgeStyle=orthogonalEdgeStyle;rounded=0;orthogonalLoop=1;jettySize=auto;html=1;" parent="1" source="HthPhOuTZ1r7zCdvfb5Y-4" edge="1">
          <mxGeometry relative="1" as="geometry">
            <mxPoint x="380" y="260" as="targetPoint" />
          </mxGeometry>
        </mxCell>
        <mxCell id="HthPhOuTZ1r7zCdvfb5Y-4" value="Listar Bordado" style="rounded=0;whiteSpace=wrap;html=1;fillColor=#dae8fc;strokeColor=#6c8ebf;" parent="1" vertex="1">
          <mxGeometry x="320" y="160" width="120" height="70" as="geometry" />
        </mxCell>
        <mxCell id="HthPhOuTZ1r7zCdvfb5Y-5" value="Não" style="edgeStyle=orthogonalEdgeStyle;rounded=0;orthogonalLoop=1;jettySize=auto;html=1;" parent="1" source="HthPhOuTZ1r7zCdvfb5Y-6" edge="1">
          <mxGeometry relative="1" as="geometry">
            <mxPoint x="380" y="410" as="targetPoint" />
          </mxGeometry>
        </mxCell>
        <mxCell id="HthPhOuTZ1r7zCdvfb5Y-6" value="Bordado Cadastrado" style="rhombus;whiteSpace=wrap;html=1;fillColor=#dae8fc;strokeColor=#6c8ebf;" parent="1" vertex="1">
          <mxGeometry x="320" y="270" width="115" height="100" as="geometry" />
        </mxCell>
        <mxCell id="HthPhOuTZ1r7zCdvfb5Y-7" style="edgeStyle=orthogonalEdgeStyle;rounded=0;orthogonalLoop=1;jettySize=auto;html=1;" parent="1" source="HthPhOuTZ1r7zCdvfb5Y-8" edge="1">
          <mxGeometry relative="1" as="geometry">
            <mxPoint x="385" y="500" as="targetPoint" />
          </mxGeometry>
        </mxCell>
        <mxCell id="HthPhOuTZ1r7zCdvfb5Y-8" value="Cadastrar Bordado" style="rounded=0;whiteSpace=wrap;html=1;fillColor=#dae8fc;strokeColor=#6c8ebf;" parent="1" vertex="1">
          <mxGeometry x="325" y="410" width="120" height="60" as="geometry" />
        </mxCell>
        <mxCell id="HthPhOuTZ1r7zCdvfb5Y-9" value="Não" style="edgeStyle=orthogonalEdgeStyle;rounded=0;orthogonalLoop=1;jettySize=auto;html=1;" parent="1" source="HthPhOuTZ1r7zCdvfb5Y-10" edge="1">
          <mxGeometry relative="1" as="geometry">
            <mxPoint x="500" y="540" as="targetPoint" />
          </mxGeometry>
        </mxCell>
        <mxCell id="HthPhOuTZ1r7zCdvfb5Y-10" value="Dados validos" style="rhombus;whiteSpace=wrap;html=1;fillColor=#dae8fc;strokeColor=#6c8ebf;" parent="1" vertex="1">
          <mxGeometry x="330" y="500" width="120" height="80" as="geometry" />
        </mxCell>
        <mxCell id="HthPhOuTZ1r7zCdvfb5Y-11" value="Mostrar Erro" style="rounded=0;whiteSpace=wrap;html=1;fillColor=#dae8fc;strokeColor=#6c8ebf;" parent="1" vertex="1">
          <mxGeometry x="500" y="510" width="120" height="60" as="geometry" />
        </mxCell>
        <mxCell id="HthPhOuTZ1r7zCdvfb5Y-12" style="edgeStyle=orthogonalEdgeStyle;rounded=0;orthogonalLoop=1;jettySize=auto;html=1;exitX=0.5;exitY=0;exitDx=0;exitDy=0;entryX=0.992;entryY=0.15;entryDx=0;entryDy=0;entryPerimeter=0;" parent="1" source="HthPhOuTZ1r7zCdvfb5Y-11" target="HthPhOuTZ1r7zCdvfb5Y-8" edge="1">
          <mxGeometry relative="1" as="geometry" />
        </mxCell>
        <mxCell id="HthPhOuTZ1r7zCdvfb5Y-13" style="edgeStyle=orthogonalEdgeStyle;rounded=0;orthogonalLoop=1;jettySize=auto;html=1;exitX=0.5;exitY=1;exitDx=0;exitDy=0;entryX=0.464;entryY=0.167;entryDx=0;entryDy=0;entryPerimeter=0;" parent="1" source="HthPhOuTZ1r7zCdvfb5Y-10" edge="1">
          <mxGeometry relative="1" as="geometry">
            <mxPoint x="389.96000000000004" y="630.02" as="targetPoint" />
          </mxGeometry>
        </mxCell>
        <mxCell id="HthPhOuTZ1r7zCdvfb5Y-14" value="Sim" style="edgeLabel;html=1;align=center;verticalAlign=middle;resizable=0;points=[];" parent="HthPhOuTZ1r7zCdvfb5Y-13" vertex="1" connectable="0">
          <mxGeometry x="0.2073" relative="1" as="geometry">
            <mxPoint as="offset" />
          </mxGeometry>
        </mxCell>
        <mxCell id="HthPhOuTZ1r7zCdvfb5Y-15" style="edgeStyle=orthogonalEdgeStyle;rounded=0;orthogonalLoop=1;jettySize=auto;html=1;exitX=0.5;exitY=1;exitDx=0;exitDy=0;entryX=1;entryY=0.5;entryDx=0;entryDy=0;" parent="1" source="HthPhOuTZ1r7zCdvfb5Y-16" target="HthPhOuTZ1r7zCdvfb5Y-31" edge="1">
          <mxGeometry relative="1" as="geometry" />
        </mxCell>
        <mxCell id="HthPhOuTZ1r7zCdvfb5Y-16" value="Cadastro Concluido" style="rounded=0;whiteSpace=wrap;html=1;fillColor=#dae8fc;strokeColor=#6c8ebf;" parent="1" vertex="1">
          <mxGeometry x="330" y="630" width="120" height="60" as="geometry" />
        </mxCell>
        <mxCell id="HthPhOuTZ1r7zCdvfb5Y-17" style="edgeStyle=orthogonalEdgeStyle;rounded=0;orthogonalLoop=1;jettySize=auto;html=1;" parent="1" source="HthPhOuTZ1r7zCdvfb5Y-18" target="HthPhOuTZ1r7zCdvfb5Y-23" edge="1">
          <mxGeometry relative="1" as="geometry" />
        </mxCell>
        <mxCell id="HthPhOuTZ1r7zCdvfb5Y-18" value="Buscar Bordado" style="rounded=0;whiteSpace=wrap;html=1;fillColor=#dae8fc;strokeColor=#6c8ebf;" parent="1" vertex="1">
          <mxGeometry x="160" y="310" width="120" height="60" as="geometry" />
        </mxCell>
        <mxCell id="HthPhOuTZ1r7zCdvfb5Y-19" style="edgeStyle=orthogonalEdgeStyle;rounded=0;orthogonalLoop=1;jettySize=auto;html=1;exitX=0.5;exitY=1;exitDx=0;exitDy=0;entryX=0.5;entryY=0;entryDx=0;entryDy=0;" parent="1" source="HthPhOuTZ1r7zCdvfb5Y-23" target="HthPhOuTZ1r7zCdvfb5Y-26" edge="1">
          <mxGeometry relative="1" as="geometry" />
        </mxCell>
        <mxCell id="HthPhOuTZ1r7zCdvfb5Y-20" style="edgeStyle=orthogonalEdgeStyle;rounded=0;orthogonalLoop=1;jettySize=auto;html=1;entryX=0;entryY=0.5;entryDx=0;entryDy=0;" parent="1" source="HthPhOuTZ1r7zCdvfb5Y-23" target="HthPhOuTZ1r7zCdvfb5Y-4" edge="1">
          <mxGeometry relative="1" as="geometry" />
        </mxCell>
        <mxCell id="HthPhOuTZ1r7zCdvfb5Y-21" style="edgeStyle=orthogonalEdgeStyle;rounded=0;orthogonalLoop=1;jettySize=auto;html=1;exitX=0;exitY=0.5;exitDx=0;exitDy=0;entryX=0;entryY=0.5;entryDx=0;entryDy=0;" parent="1" source="HthPhOuTZ1r7zCdvfb5Y-23" target="HthPhOuTZ1r7zCdvfb5Y-2" edge="1">
          <mxGeometry relative="1" as="geometry" />
        </mxCell>
        <mxCell id="HthPhOuTZ1r7zCdvfb5Y-22" value="Não" style="edgeLabel;html=1;align=center;verticalAlign=middle;resizable=0;points=[];" parent="HthPhOuTZ1r7zCdvfb5Y-21" vertex="1" connectable="0">
          <mxGeometry x="-0.2479" y="2" relative="1" as="geometry">
            <mxPoint as="offset" />
          </mxGeometry>
        </mxCell>
        <mxCell id="HthPhOuTZ1r7zCdvfb5Y-23" value="Bordado Encontrado" style="rhombus;whiteSpace=wrap;html=1;fillColor=#dae8fc;strokeColor=#6c8ebf;" parent="1" vertex="1">
          <mxGeometry x="170" y="430" width="100" height="90" as="geometry" />
        </mxCell>
        <mxCell id="HthPhOuTZ1r7zCdvfb5Y-24" style="edgeStyle=orthogonalEdgeStyle;rounded=0;orthogonalLoop=1;jettySize=auto;html=1;" parent="1" source="HthPhOuTZ1r7zCdvfb5Y-26" target="HthPhOuTZ1r7zCdvfb5Y-30" edge="1">
          <mxGeometry relative="1" as="geometry" />
        </mxCell>
        <mxCell id="HthPhOuTZ1r7zCdvfb5Y-25" value="Não" style="edgeLabel;html=1;align=center;verticalAlign=middle;resizable=0;points=[];" parent="HthPhOuTZ1r7zCdvfb5Y-24" vertex="1" connectable="0">
          <mxGeometry x="-0.04" y="2" relative="1" as="geometry">
            <mxPoint as="offset" />
          </mxGeometry>
        </mxCell>
        <mxCell id="HthPhOuTZ1r7zCdvfb5Y-26" value="Excluir Bordado" style="rhombus;whiteSpace=wrap;html=1;fillColor=#dae8fc;strokeColor=#6c8ebf;" parent="1" vertex="1">
          <mxGeometry x="170" y="550" width="100" height="90" as="geometry" />
        </mxCell>
        <mxCell id="HthPhOuTZ1r7zCdvfb5Y-27" style="edgeStyle=orthogonalEdgeStyle;rounded=0;orthogonalLoop=1;jettySize=auto;html=1;exitX=0.5;exitY=1;exitDx=0;exitDy=0;entryX=0;entryY=0.5;entryDx=0;entryDy=0;" parent="1" source="HthPhOuTZ1r7zCdvfb5Y-30" target="HthPhOuTZ1r7zCdvfb5Y-31" edge="1">
          <mxGeometry relative="1" as="geometry" />
        </mxCell>
        <mxCell id="HthPhOuTZ1r7zCdvfb5Y-28" value="Não" style="edgeLabel;html=1;align=center;verticalAlign=middle;resizable=0;points=[];" parent="HthPhOuTZ1r7zCdvfb5Y-27" vertex="1" connectable="0">
          <mxGeometry x="-0.48" y="1" relative="1" as="geometry">
            <mxPoint as="offset" />
          </mxGeometry>
        </mxCell>
        <mxCell id="HthPhOuTZ1r7zCdvfb5Y-29" style="edgeStyle=orthogonalEdgeStyle;rounded=0;orthogonalLoop=1;jettySize=auto;html=1;exitX=0;exitY=0.5;exitDx=0;exitDy=0;" parent="1" source="HthPhOuTZ1r7zCdvfb5Y-30" edge="1">
          <mxGeometry relative="1" as="geometry">
            <mxPoint x="130" y="730" as="targetPoint" />
          </mxGeometry>
        </mxCell>
        <mxCell id="HthPhOuTZ1r7zCdvfb5Y-30" value="Atualizar Bordado" style="rhombus;whiteSpace=wrap;html=1;fillColor=#dae8fc;strokeColor=#6c8ebf;" parent="1" vertex="1">
          <mxGeometry x="170" y="690" width="100" height="80" as="geometry" />
        </mxCell>
        <mxCell id="HthPhOuTZ1r7zCdvfb5Y-31" value="Fim" style="ellipse;whiteSpace=wrap;html=1;fillColor=#dae8fc;strokeColor=#6c8ebf;" parent="1" vertex="1">
          <mxGeometry x="250" y="760" width="120" height="80" as="geometry" />
        </mxCell>
        <mxCell id="HthPhOuTZ1r7zCdvfb5Y-32" style="edgeStyle=orthogonalEdgeStyle;rounded=0;orthogonalLoop=1;jettySize=auto;html=1;exitX=0.5;exitY=1;exitDx=0;exitDy=0;entryX=0.5;entryY=1;entryDx=0;entryDy=0;" parent="1" source="HthPhOuTZ1r7zCdvfb5Y-33" target="HthPhOuTZ1r7zCdvfb5Y-31" edge="1">
          <mxGeometry relative="1" as="geometry" />
        </mxCell>
        <mxCell id="HthPhOuTZ1r7zCdvfb5Y-33" value="Atualização Concluida" style="rounded=0;whiteSpace=wrap;html=1;fillColor=#dae8fc;strokeColor=#6c8ebf;" parent="1" vertex="1">
          <mxGeometry x="25" y="820" width="120" height="60" as="geometry" />
        </mxCell>
        <mxCell id="HthPhOuTZ1r7zCdvfb5Y-34" style="edgeStyle=orthogonalEdgeStyle;rounded=0;orthogonalLoop=1;jettySize=auto;html=1;exitX=0.5;exitY=1;exitDx=0;exitDy=0;" parent="1" source="HthPhOuTZ1r7zCdvfb5Y-36" edge="1">
          <mxGeometry relative="1" as="geometry">
            <mxPoint x="85" y="820" as="targetPoint" />
          </mxGeometry>
        </mxCell>
        <mxCell id="HthPhOuTZ1r7zCdvfb5Y-35" value="Sim" style="edgeLabel;html=1;align=center;verticalAlign=middle;resizable=0;points=[];" parent="HthPhOuTZ1r7zCdvfb5Y-34" vertex="1" connectable="0">
          <mxGeometry x="-0.0892" y="-3" relative="1" as="geometry">
            <mxPoint as="offset" />
          </mxGeometry>
        </mxCell>
        <mxCell id="HthPhOuTZ1r7zCdvfb5Y-36" value="Dados Validos" style="rhombus;whiteSpace=wrap;html=1;fillColor=#dae8fc;strokeColor=#6c8ebf;" parent="1" vertex="1">
          <mxGeometry x="40" y="690" width="90" height="80" as="geometry" />
        </mxCell>
      </root>
    </mxGraphModel>
  </diagram>
  <diagram id="VItgAq9l7d_99puAy3mp" name="Página-9">
    <mxGraphModel dx="1434" dy="782" grid="1" gridSize="10" guides="1" tooltips="1" connect="1" arrows="1" fold="1" page="1" pageScale="1" pageWidth="827" pageHeight="1169" math="0" shadow="0">
      <root>
        <mxCell id="0" />
        <mxCell id="1" parent="0" />
        <mxCell id="TPff34yzQxxUeWbokdnJ-1" value="" style="edgeStyle=orthogonalEdgeStyle;rounded=0;orthogonalLoop=1;jettySize=auto;html=1;" parent="1" source="TPff34yzQxxUeWbokdnJ-2" target="TPff34yzQxxUeWbokdnJ-4" edge="1">
          <mxGeometry relative="1" as="geometry" />
        </mxCell>
        <mxCell id="TPff34yzQxxUeWbokdnJ-2" value="Inicio" style="ellipse;whiteSpace=wrap;html=1;fillColor=#dae8fc;strokeColor=#6c8ebf;" parent="1" vertex="1">
          <mxGeometry x="320" y="40" width="120" height="80" as="geometry" />
        </mxCell>
        <mxCell id="TPff34yzQxxUeWbokdnJ-3" style="edgeStyle=orthogonalEdgeStyle;rounded=0;orthogonalLoop=1;jettySize=auto;html=1;exitX=0.5;exitY=1;exitDx=0;exitDy=0;" parent="1" source="TPff34yzQxxUeWbokdnJ-4" edge="1">
          <mxGeometry relative="1" as="geometry">
            <mxPoint x="380" y="260" as="targetPoint" />
          </mxGeometry>
        </mxCell>
        <mxCell id="TPff34yzQxxUeWbokdnJ-4" value="Listar Costura" style="rounded=0;whiteSpace=wrap;html=1;fillColor=#dae8fc;strokeColor=#6c8ebf;" parent="1" vertex="1">
          <mxGeometry x="320" y="160" width="120" height="60" as="geometry" />
        </mxCell>
        <mxCell id="TPff34yzQxxUeWbokdnJ-5" value="Não" style="edgeStyle=orthogonalEdgeStyle;rounded=0;orthogonalLoop=1;jettySize=auto;html=1;" parent="1" source="TPff34yzQxxUeWbokdnJ-6" edge="1">
          <mxGeometry relative="1" as="geometry">
            <mxPoint x="380" y="410" as="targetPoint" />
          </mxGeometry>
        </mxCell>
        <mxCell id="TPff34yzQxxUeWbokdnJ-6" value="Costura Cadastrada" style="rhombus;whiteSpace=wrap;html=1;fillColor=#dae8fc;strokeColor=#6c8ebf;" parent="1" vertex="1">
          <mxGeometry x="320" y="270" width="115" height="100" as="geometry" />
        </mxCell>
        <mxCell id="TPff34yzQxxUeWbokdnJ-7" style="edgeStyle=orthogonalEdgeStyle;rounded=0;orthogonalLoop=1;jettySize=auto;html=1;" parent="1" source="TPff34yzQxxUeWbokdnJ-8" edge="1">
          <mxGeometry relative="1" as="geometry">
            <mxPoint x="385" y="500" as="targetPoint" />
          </mxGeometry>
        </mxCell>
        <mxCell id="TPff34yzQxxUeWbokdnJ-8" value="Cadastrar Costura" style="rounded=0;whiteSpace=wrap;html=1;fillColor=#dae8fc;strokeColor=#6c8ebf;" parent="1" vertex="1">
          <mxGeometry x="325" y="410" width="120" height="60" as="geometry" />
        </mxCell>
        <mxCell id="TPff34yzQxxUeWbokdnJ-9" value="Não" style="edgeStyle=orthogonalEdgeStyle;rounded=0;orthogonalLoop=1;jettySize=auto;html=1;" parent="1" source="TPff34yzQxxUeWbokdnJ-10" edge="1">
          <mxGeometry relative="1" as="geometry">
            <mxPoint x="500" y="540" as="targetPoint" />
          </mxGeometry>
        </mxCell>
        <mxCell id="TPff34yzQxxUeWbokdnJ-10" value="Dados validos" style="rhombus;whiteSpace=wrap;html=1;fillColor=#dae8fc;strokeColor=#6c8ebf;" parent="1" vertex="1">
          <mxGeometry x="330" y="500" width="120" height="80" as="geometry" />
        </mxCell>
        <mxCell id="TPff34yzQxxUeWbokdnJ-11" value="Mostrar Erro" style="rounded=0;whiteSpace=wrap;html=1;fillColor=#dae8fc;strokeColor=#6c8ebf;" parent="1" vertex="1">
          <mxGeometry x="500" y="510" width="120" height="60" as="geometry" />
        </mxCell>
        <mxCell id="TPff34yzQxxUeWbokdnJ-12" style="edgeStyle=orthogonalEdgeStyle;rounded=0;orthogonalLoop=1;jettySize=auto;html=1;exitX=0.5;exitY=0;exitDx=0;exitDy=0;entryX=0.992;entryY=0.15;entryDx=0;entryDy=0;entryPerimeter=0;" parent="1" source="TPff34yzQxxUeWbokdnJ-11" target="TPff34yzQxxUeWbokdnJ-8" edge="1">
          <mxGeometry relative="1" as="geometry" />
        </mxCell>
        <mxCell id="TPff34yzQxxUeWbokdnJ-13" style="edgeStyle=orthogonalEdgeStyle;rounded=0;orthogonalLoop=1;jettySize=auto;html=1;exitX=0.5;exitY=1;exitDx=0;exitDy=0;entryX=0.464;entryY=0.167;entryDx=0;entryDy=0;entryPerimeter=0;" parent="1" source="TPff34yzQxxUeWbokdnJ-10" edge="1">
          <mxGeometry relative="1" as="geometry">
            <mxPoint x="389.96000000000004" y="630.02" as="targetPoint" />
          </mxGeometry>
        </mxCell>
        <mxCell id="TPff34yzQxxUeWbokdnJ-14" value="Sim" style="edgeLabel;html=1;align=center;verticalAlign=middle;resizable=0;points=[];" parent="TPff34yzQxxUeWbokdnJ-13" vertex="1" connectable="0">
          <mxGeometry x="0.2073" relative="1" as="geometry">
            <mxPoint as="offset" />
          </mxGeometry>
        </mxCell>
        <mxCell id="TPff34yzQxxUeWbokdnJ-15" style="edgeStyle=orthogonalEdgeStyle;rounded=0;orthogonalLoop=1;jettySize=auto;html=1;exitX=0.5;exitY=1;exitDx=0;exitDy=0;entryX=1;entryY=0.5;entryDx=0;entryDy=0;" parent="1" source="TPff34yzQxxUeWbokdnJ-16" target="TPff34yzQxxUeWbokdnJ-31" edge="1">
          <mxGeometry relative="1" as="geometry" />
        </mxCell>
        <mxCell id="TPff34yzQxxUeWbokdnJ-16" value="Cadastro Concluido" style="rounded=0;whiteSpace=wrap;html=1;fillColor=#dae8fc;strokeColor=#6c8ebf;" parent="1" vertex="1">
          <mxGeometry x="330" y="630" width="120" height="60" as="geometry" />
        </mxCell>
        <mxCell id="TPff34yzQxxUeWbokdnJ-17" style="edgeStyle=orthogonalEdgeStyle;rounded=0;orthogonalLoop=1;jettySize=auto;html=1;" parent="1" source="TPff34yzQxxUeWbokdnJ-18" target="TPff34yzQxxUeWbokdnJ-23" edge="1">
          <mxGeometry relative="1" as="geometry" />
        </mxCell>
        <mxCell id="TPff34yzQxxUeWbokdnJ-18" value="Buscar Costura" style="rounded=0;whiteSpace=wrap;html=1;fillColor=#dae8fc;strokeColor=#6c8ebf;" parent="1" vertex="1">
          <mxGeometry x="160" y="310" width="120" height="60" as="geometry" />
        </mxCell>
        <mxCell id="TPff34yzQxxUeWbokdnJ-19" style="edgeStyle=orthogonalEdgeStyle;rounded=0;orthogonalLoop=1;jettySize=auto;html=1;exitX=0.5;exitY=1;exitDx=0;exitDy=0;entryX=0.5;entryY=0;entryDx=0;entryDy=0;" parent="1" source="TPff34yzQxxUeWbokdnJ-23" target="TPff34yzQxxUeWbokdnJ-26" edge="1">
          <mxGeometry relative="1" as="geometry" />
        </mxCell>
        <mxCell id="TPff34yzQxxUeWbokdnJ-20" style="edgeStyle=orthogonalEdgeStyle;rounded=0;orthogonalLoop=1;jettySize=auto;html=1;entryX=0;entryY=0.5;entryDx=0;entryDy=0;" parent="1" source="TPff34yzQxxUeWbokdnJ-23" target="TPff34yzQxxUeWbokdnJ-4" edge="1">
          <mxGeometry relative="1" as="geometry" />
        </mxCell>
        <mxCell id="TPff34yzQxxUeWbokdnJ-21" style="edgeStyle=orthogonalEdgeStyle;rounded=0;orthogonalLoop=1;jettySize=auto;html=1;exitX=0;exitY=0.5;exitDx=0;exitDy=0;entryX=0;entryY=0.5;entryDx=0;entryDy=0;" parent="1" source="TPff34yzQxxUeWbokdnJ-23" target="TPff34yzQxxUeWbokdnJ-2" edge="1">
          <mxGeometry relative="1" as="geometry" />
        </mxCell>
        <mxCell id="TPff34yzQxxUeWbokdnJ-22" value="Não" style="edgeLabel;html=1;align=center;verticalAlign=middle;resizable=0;points=[];" parent="TPff34yzQxxUeWbokdnJ-21" vertex="1" connectable="0">
          <mxGeometry x="-0.2479" y="2" relative="1" as="geometry">
            <mxPoint as="offset" />
          </mxGeometry>
        </mxCell>
        <mxCell id="TPff34yzQxxUeWbokdnJ-23" value="Costura Encontrada" style="rhombus;whiteSpace=wrap;html=1;fillColor=#dae8fc;strokeColor=#6c8ebf;" parent="1" vertex="1">
          <mxGeometry x="170" y="430" width="100" height="90" as="geometry" />
        </mxCell>
        <mxCell id="TPff34yzQxxUeWbokdnJ-24" style="edgeStyle=orthogonalEdgeStyle;rounded=0;orthogonalLoop=1;jettySize=auto;html=1;" parent="1" source="TPff34yzQxxUeWbokdnJ-26" target="TPff34yzQxxUeWbokdnJ-30" edge="1">
          <mxGeometry relative="1" as="geometry" />
        </mxCell>
        <mxCell id="TPff34yzQxxUeWbokdnJ-25" value="Não" style="edgeLabel;html=1;align=center;verticalAlign=middle;resizable=0;points=[];" parent="TPff34yzQxxUeWbokdnJ-24" vertex="1" connectable="0">
          <mxGeometry x="-0.04" y="2" relative="1" as="geometry">
            <mxPoint as="offset" />
          </mxGeometry>
        </mxCell>
        <mxCell id="TPff34yzQxxUeWbokdnJ-26" value="Excluir Costura" style="rhombus;whiteSpace=wrap;html=1;fillColor=#dae8fc;strokeColor=#6c8ebf;" parent="1" vertex="1">
          <mxGeometry x="170" y="550" width="100" height="90" as="geometry" />
        </mxCell>
        <mxCell id="TPff34yzQxxUeWbokdnJ-27" style="edgeStyle=orthogonalEdgeStyle;rounded=0;orthogonalLoop=1;jettySize=auto;html=1;exitX=0.5;exitY=1;exitDx=0;exitDy=0;entryX=0;entryY=0.5;entryDx=0;entryDy=0;" parent="1" source="TPff34yzQxxUeWbokdnJ-30" target="TPff34yzQxxUeWbokdnJ-31" edge="1">
          <mxGeometry relative="1" as="geometry" />
        </mxCell>
        <mxCell id="TPff34yzQxxUeWbokdnJ-28" value="Não" style="edgeLabel;html=1;align=center;verticalAlign=middle;resizable=0;points=[];" parent="TPff34yzQxxUeWbokdnJ-27" vertex="1" connectable="0">
          <mxGeometry x="-0.48" y="1" relative="1" as="geometry">
            <mxPoint as="offset" />
          </mxGeometry>
        </mxCell>
        <mxCell id="TPff34yzQxxUeWbokdnJ-29" style="edgeStyle=orthogonalEdgeStyle;rounded=0;orthogonalLoop=1;jettySize=auto;html=1;exitX=0;exitY=0.5;exitDx=0;exitDy=0;" parent="1" source="TPff34yzQxxUeWbokdnJ-30" edge="1">
          <mxGeometry relative="1" as="geometry">
            <mxPoint x="130" y="730" as="targetPoint" />
          </mxGeometry>
        </mxCell>
        <mxCell id="TPff34yzQxxUeWbokdnJ-30" value="Atualizar Costura" style="rhombus;whiteSpace=wrap;html=1;fillColor=#dae8fc;strokeColor=#6c8ebf;" parent="1" vertex="1">
          <mxGeometry x="170" y="690" width="100" height="80" as="geometry" />
        </mxCell>
        <mxCell id="TPff34yzQxxUeWbokdnJ-31" value="Fim" style="ellipse;whiteSpace=wrap;html=1;fillColor=#dae8fc;strokeColor=#6c8ebf;" parent="1" vertex="1">
          <mxGeometry x="250" y="760" width="120" height="80" as="geometry" />
        </mxCell>
        <mxCell id="TPff34yzQxxUeWbokdnJ-32" style="edgeStyle=orthogonalEdgeStyle;rounded=0;orthogonalLoop=1;jettySize=auto;html=1;exitX=0.5;exitY=1;exitDx=0;exitDy=0;entryX=0.5;entryY=1;entryDx=0;entryDy=0;" parent="1" source="TPff34yzQxxUeWbokdnJ-33" target="TPff34yzQxxUeWbokdnJ-31" edge="1">
          <mxGeometry relative="1" as="geometry" />
        </mxCell>
        <mxCell id="TPff34yzQxxUeWbokdnJ-33" value="Atualização Concluida" style="rounded=0;whiteSpace=wrap;html=1;fillColor=#dae8fc;strokeColor=#6c8ebf;" parent="1" vertex="1">
          <mxGeometry x="25" y="820" width="120" height="60" as="geometry" />
        </mxCell>
        <mxCell id="TPff34yzQxxUeWbokdnJ-34" style="edgeStyle=orthogonalEdgeStyle;rounded=0;orthogonalLoop=1;jettySize=auto;html=1;exitX=0.5;exitY=1;exitDx=0;exitDy=0;" parent="1" source="TPff34yzQxxUeWbokdnJ-36" edge="1">
          <mxGeometry relative="1" as="geometry">
            <mxPoint x="85" y="820" as="targetPoint" />
          </mxGeometry>
        </mxCell>
        <mxCell id="TPff34yzQxxUeWbokdnJ-35" value="Sim" style="edgeLabel;html=1;align=center;verticalAlign=middle;resizable=0;points=[];" parent="TPff34yzQxxUeWbokdnJ-34" vertex="1" connectable="0">
          <mxGeometry x="-0.0892" y="-3" relative="1" as="geometry">
            <mxPoint as="offset" />
          </mxGeometry>
        </mxCell>
        <mxCell id="TPff34yzQxxUeWbokdnJ-36" value="Dados Validos" style="rhombus;whiteSpace=wrap;html=1;fillColor=#dae8fc;strokeColor=#6c8ebf;" parent="1" vertex="1">
          <mxGeometry x="40" y="690" width="90" height="80" as="geometry" />
        </mxCell>
      </root>
    </mxGraphModel>
  </diagram>
  <diagram id="payrfZkbkR6JiH5Slygw" name="Página-10">
    <mxGraphModel dx="1434" dy="782" grid="1" gridSize="10" guides="1" tooltips="1" connect="1" arrows="1" fold="1" page="1" pageScale="1" pageWidth="827" pageHeight="1169" math="0" shadow="0">
      <root>
        <mxCell id="0" />
        <mxCell id="1" parent="0" />
        <mxCell id="0-ounsTzVh1XOrt2qTXn-1" value="" style="edgeStyle=orthogonalEdgeStyle;rounded=0;orthogonalLoop=1;jettySize=auto;html=1;" parent="1" source="0-ounsTzVh1XOrt2qTXn-2" target="0-ounsTzVh1XOrt2qTXn-4" edge="1">
          <mxGeometry relative="1" as="geometry" />
        </mxCell>
        <mxCell id="0-ounsTzVh1XOrt2qTXn-2" value="Inicio" style="ellipse;whiteSpace=wrap;html=1;fillColor=#dae8fc;strokeColor=#6c8ebf;" parent="1" vertex="1">
          <mxGeometry x="320" y="40" width="120" height="80" as="geometry" />
        </mxCell>
        <mxCell id="0-ounsTzVh1XOrt2qTXn-3" style="edgeStyle=orthogonalEdgeStyle;rounded=0;orthogonalLoop=1;jettySize=auto;html=1;exitX=0.5;exitY=1;exitDx=0;exitDy=0;" parent="1" source="0-ounsTzVh1XOrt2qTXn-4" edge="1">
          <mxGeometry relative="1" as="geometry">
            <mxPoint x="380" y="260" as="targetPoint" />
          </mxGeometry>
        </mxCell>
        <mxCell id="0-ounsTzVh1XOrt2qTXn-4" value="Listar Estoque" style="rounded=0;whiteSpace=wrap;html=1;fillColor=#dae8fc;strokeColor=#6c8ebf;" parent="1" vertex="1">
          <mxGeometry x="320" y="160" width="120" height="60" as="geometry" />
        </mxCell>
        <mxCell id="0-ounsTzVh1XOrt2qTXn-5" value="Não" style="edgeStyle=orthogonalEdgeStyle;rounded=0;orthogonalLoop=1;jettySize=auto;html=1;" parent="1" source="0-ounsTzVh1XOrt2qTXn-6" edge="1">
          <mxGeometry relative="1" as="geometry">
            <mxPoint x="380" y="410" as="targetPoint" />
          </mxGeometry>
        </mxCell>
        <mxCell id="0-ounsTzVh1XOrt2qTXn-6" value="Estoque Cadastrado" style="rhombus;whiteSpace=wrap;html=1;fillColor=#dae8fc;strokeColor=#6c8ebf;" parent="1" vertex="1">
          <mxGeometry x="320" y="270" width="115" height="100" as="geometry" />
        </mxCell>
        <mxCell id="0-ounsTzVh1XOrt2qTXn-7" style="edgeStyle=orthogonalEdgeStyle;rounded=0;orthogonalLoop=1;jettySize=auto;html=1;" parent="1" source="0-ounsTzVh1XOrt2qTXn-8" edge="1">
          <mxGeometry relative="1" as="geometry">
            <mxPoint x="385" y="500" as="targetPoint" />
          </mxGeometry>
        </mxCell>
        <mxCell id="0-ounsTzVh1XOrt2qTXn-8" value="Cadastrar Estoque" style="rounded=0;whiteSpace=wrap;html=1;fillColor=#dae8fc;strokeColor=#6c8ebf;" parent="1" vertex="1">
          <mxGeometry x="325" y="410" width="120" height="60" as="geometry" />
        </mxCell>
        <mxCell id="0-ounsTzVh1XOrt2qTXn-9" value="Não" style="edgeStyle=orthogonalEdgeStyle;rounded=0;orthogonalLoop=1;jettySize=auto;html=1;" parent="1" source="0-ounsTzVh1XOrt2qTXn-10" edge="1">
          <mxGeometry relative="1" as="geometry">
            <mxPoint x="500" y="540" as="targetPoint" />
          </mxGeometry>
        </mxCell>
        <mxCell id="0-ounsTzVh1XOrt2qTXn-10" value="Dados validos" style="rhombus;whiteSpace=wrap;html=1;fillColor=#dae8fc;strokeColor=#6c8ebf;" parent="1" vertex="1">
          <mxGeometry x="330" y="500" width="120" height="80" as="geometry" />
        </mxCell>
        <mxCell id="0-ounsTzVh1XOrt2qTXn-11" value="Mostrar Erro" style="rounded=0;whiteSpace=wrap;html=1;fillColor=#dae8fc;strokeColor=#6c8ebf;" parent="1" vertex="1">
          <mxGeometry x="500" y="510" width="120" height="60" as="geometry" />
        </mxCell>
        <mxCell id="0-ounsTzVh1XOrt2qTXn-12" style="edgeStyle=orthogonalEdgeStyle;rounded=0;orthogonalLoop=1;jettySize=auto;html=1;exitX=0.5;exitY=0;exitDx=0;exitDy=0;entryX=0.992;entryY=0.15;entryDx=0;entryDy=0;entryPerimeter=0;" parent="1" source="0-ounsTzVh1XOrt2qTXn-11" target="0-ounsTzVh1XOrt2qTXn-8" edge="1">
          <mxGeometry relative="1" as="geometry" />
        </mxCell>
        <mxCell id="0-ounsTzVh1XOrt2qTXn-13" style="edgeStyle=orthogonalEdgeStyle;rounded=0;orthogonalLoop=1;jettySize=auto;html=1;exitX=0.5;exitY=1;exitDx=0;exitDy=0;entryX=0.464;entryY=0.167;entryDx=0;entryDy=0;entryPerimeter=0;" parent="1" source="0-ounsTzVh1XOrt2qTXn-10" edge="1">
          <mxGeometry relative="1" as="geometry">
            <mxPoint x="389.96000000000004" y="630.02" as="targetPoint" />
          </mxGeometry>
        </mxCell>
        <mxCell id="0-ounsTzVh1XOrt2qTXn-14" value="Sim" style="edgeLabel;html=1;align=center;verticalAlign=middle;resizable=0;points=[];" parent="0-ounsTzVh1XOrt2qTXn-13" vertex="1" connectable="0">
          <mxGeometry x="0.2073" relative="1" as="geometry">
            <mxPoint as="offset" />
          </mxGeometry>
        </mxCell>
        <mxCell id="0-ounsTzVh1XOrt2qTXn-15" style="edgeStyle=orthogonalEdgeStyle;rounded=0;orthogonalLoop=1;jettySize=auto;html=1;exitX=0.5;exitY=1;exitDx=0;exitDy=0;entryX=1;entryY=0.5;entryDx=0;entryDy=0;" parent="1" source="0-ounsTzVh1XOrt2qTXn-16" target="0-ounsTzVh1XOrt2qTXn-31" edge="1">
          <mxGeometry relative="1" as="geometry" />
        </mxCell>
        <mxCell id="0-ounsTzVh1XOrt2qTXn-16" value="Cadastro Concluido" style="rounded=0;whiteSpace=wrap;html=1;fillColor=#dae8fc;strokeColor=#6c8ebf;" parent="1" vertex="1">
          <mxGeometry x="330" y="630" width="120" height="60" as="geometry" />
        </mxCell>
        <mxCell id="0-ounsTzVh1XOrt2qTXn-17" style="edgeStyle=orthogonalEdgeStyle;rounded=0;orthogonalLoop=1;jettySize=auto;html=1;" parent="1" source="0-ounsTzVh1XOrt2qTXn-18" target="0-ounsTzVh1XOrt2qTXn-23" edge="1">
          <mxGeometry relative="1" as="geometry" />
        </mxCell>
        <mxCell id="0-ounsTzVh1XOrt2qTXn-18" value="Buscar Estoque" style="rounded=0;whiteSpace=wrap;html=1;fillColor=#dae8fc;strokeColor=#6c8ebf;" parent="1" vertex="1">
          <mxGeometry x="160" y="310" width="120" height="60" as="geometry" />
        </mxCell>
        <mxCell id="0-ounsTzVh1XOrt2qTXn-19" style="edgeStyle=orthogonalEdgeStyle;rounded=0;orthogonalLoop=1;jettySize=auto;html=1;exitX=0.5;exitY=1;exitDx=0;exitDy=0;entryX=0.5;entryY=0;entryDx=0;entryDy=0;" parent="1" source="0-ounsTzVh1XOrt2qTXn-23" target="0-ounsTzVh1XOrt2qTXn-26" edge="1">
          <mxGeometry relative="1" as="geometry" />
        </mxCell>
        <mxCell id="0-ounsTzVh1XOrt2qTXn-20" style="edgeStyle=orthogonalEdgeStyle;rounded=0;orthogonalLoop=1;jettySize=auto;html=1;entryX=0;entryY=0.5;entryDx=0;entryDy=0;" parent="1" source="0-ounsTzVh1XOrt2qTXn-23" target="0-ounsTzVh1XOrt2qTXn-4" edge="1">
          <mxGeometry relative="1" as="geometry" />
        </mxCell>
        <mxCell id="0-ounsTzVh1XOrt2qTXn-21" style="edgeStyle=orthogonalEdgeStyle;rounded=0;orthogonalLoop=1;jettySize=auto;html=1;exitX=0;exitY=0.5;exitDx=0;exitDy=0;entryX=0;entryY=0.5;entryDx=0;entryDy=0;" parent="1" source="0-ounsTzVh1XOrt2qTXn-23" target="0-ounsTzVh1XOrt2qTXn-2" edge="1">
          <mxGeometry relative="1" as="geometry" />
        </mxCell>
        <mxCell id="0-ounsTzVh1XOrt2qTXn-22" value="Não" style="edgeLabel;html=1;align=center;verticalAlign=middle;resizable=0;points=[];" parent="0-ounsTzVh1XOrt2qTXn-21" vertex="1" connectable="0">
          <mxGeometry x="-0.2479" y="2" relative="1" as="geometry">
            <mxPoint as="offset" />
          </mxGeometry>
        </mxCell>
        <mxCell id="0-ounsTzVh1XOrt2qTXn-23" value="Estoque Encontrado" style="rhombus;whiteSpace=wrap;html=1;fillColor=#dae8fc;strokeColor=#6c8ebf;" parent="1" vertex="1">
          <mxGeometry x="170" y="430" width="100" height="90" as="geometry" />
        </mxCell>
        <mxCell id="0-ounsTzVh1XOrt2qTXn-24" style="edgeStyle=orthogonalEdgeStyle;rounded=0;orthogonalLoop=1;jettySize=auto;html=1;" parent="1" source="0-ounsTzVh1XOrt2qTXn-26" target="0-ounsTzVh1XOrt2qTXn-30" edge="1">
          <mxGeometry relative="1" as="geometry" />
        </mxCell>
        <mxCell id="0-ounsTzVh1XOrt2qTXn-25" value="Não" style="edgeLabel;html=1;align=center;verticalAlign=middle;resizable=0;points=[];" parent="0-ounsTzVh1XOrt2qTXn-24" vertex="1" connectable="0">
          <mxGeometry x="-0.04" y="2" relative="1" as="geometry">
            <mxPoint as="offset" />
          </mxGeometry>
        </mxCell>
        <mxCell id="0-ounsTzVh1XOrt2qTXn-26" value="Excluir Estoque" style="rhombus;whiteSpace=wrap;html=1;fillColor=#dae8fc;strokeColor=#6c8ebf;" parent="1" vertex="1">
          <mxGeometry x="170" y="550" width="100" height="90" as="geometry" />
        </mxCell>
        <mxCell id="0-ounsTzVh1XOrt2qTXn-27" style="edgeStyle=orthogonalEdgeStyle;rounded=0;orthogonalLoop=1;jettySize=auto;html=1;exitX=0.5;exitY=1;exitDx=0;exitDy=0;entryX=0;entryY=0.5;entryDx=0;entryDy=0;" parent="1" source="0-ounsTzVh1XOrt2qTXn-30" target="0-ounsTzVh1XOrt2qTXn-31" edge="1">
          <mxGeometry relative="1" as="geometry" />
        </mxCell>
        <mxCell id="0-ounsTzVh1XOrt2qTXn-28" value="Não" style="edgeLabel;html=1;align=center;verticalAlign=middle;resizable=0;points=[];" parent="0-ounsTzVh1XOrt2qTXn-27" vertex="1" connectable="0">
          <mxGeometry x="-0.48" y="1" relative="1" as="geometry">
            <mxPoint as="offset" />
          </mxGeometry>
        </mxCell>
        <mxCell id="0-ounsTzVh1XOrt2qTXn-29" style="edgeStyle=orthogonalEdgeStyle;rounded=0;orthogonalLoop=1;jettySize=auto;html=1;exitX=0;exitY=0.5;exitDx=0;exitDy=0;" parent="1" source="0-ounsTzVh1XOrt2qTXn-30" edge="1">
          <mxGeometry relative="1" as="geometry">
            <mxPoint x="130" y="730" as="targetPoint" />
          </mxGeometry>
        </mxCell>
        <mxCell id="0-ounsTzVh1XOrt2qTXn-30" value="Atualizar Estoque" style="rhombus;whiteSpace=wrap;html=1;fillColor=#dae8fc;strokeColor=#6c8ebf;" parent="1" vertex="1">
          <mxGeometry x="170" y="690" width="100" height="80" as="geometry" />
        </mxCell>
        <mxCell id="0-ounsTzVh1XOrt2qTXn-31" value="Fim" style="ellipse;whiteSpace=wrap;html=1;fillColor=#dae8fc;strokeColor=#6c8ebf;" parent="1" vertex="1">
          <mxGeometry x="250" y="760" width="120" height="80" as="geometry" />
        </mxCell>
        <mxCell id="0-ounsTzVh1XOrt2qTXn-32" style="edgeStyle=orthogonalEdgeStyle;rounded=0;orthogonalLoop=1;jettySize=auto;html=1;exitX=0.5;exitY=1;exitDx=0;exitDy=0;entryX=0.5;entryY=1;entryDx=0;entryDy=0;" parent="1" source="0-ounsTzVh1XOrt2qTXn-33" target="0-ounsTzVh1XOrt2qTXn-31" edge="1">
          <mxGeometry relative="1" as="geometry" />
        </mxCell>
        <mxCell id="0-ounsTzVh1XOrt2qTXn-33" value="Atualização Concluida" style="rounded=0;whiteSpace=wrap;html=1;fillColor=#dae8fc;strokeColor=#6c8ebf;" parent="1" vertex="1">
          <mxGeometry x="25" y="820" width="120" height="60" as="geometry" />
        </mxCell>
        <mxCell id="0-ounsTzVh1XOrt2qTXn-34" style="edgeStyle=orthogonalEdgeStyle;rounded=0;orthogonalLoop=1;jettySize=auto;html=1;exitX=0.5;exitY=1;exitDx=0;exitDy=0;" parent="1" source="0-ounsTzVh1XOrt2qTXn-36" edge="1">
          <mxGeometry relative="1" as="geometry">
            <mxPoint x="85" y="820" as="targetPoint" />
          </mxGeometry>
        </mxCell>
        <mxCell id="0-ounsTzVh1XOrt2qTXn-35" value="Sim" style="edgeLabel;html=1;align=center;verticalAlign=middle;resizable=0;points=[];" parent="0-ounsTzVh1XOrt2qTXn-34" vertex="1" connectable="0">
          <mxGeometry x="-0.0892" y="-3" relative="1" as="geometry">
            <mxPoint as="offset" />
          </mxGeometry>
        </mxCell>
        <mxCell id="0-ounsTzVh1XOrt2qTXn-36" value="Dados Validos" style="rhombus;whiteSpace=wrap;html=1;fillColor=#dae8fc;strokeColor=#6c8ebf;" parent="1" vertex="1">
          <mxGeometry x="40" y="690" width="90" height="80" as="geometry" />
        </mxCell>
      </root>
    </mxGraphModel>
  </diagram>
  <diagram id="5Rxi8UgLNh16AF0_g-9H" name="Página-11">
    <mxGraphModel dx="1434" dy="782" grid="1" gridSize="10" guides="1" tooltips="1" connect="1" arrows="1" fold="1" page="1" pageScale="1" pageWidth="827" pageHeight="1169" math="0" shadow="0">
      <root>
        <mxCell id="0" />
        <mxCell id="1" parent="0" />
      </root>
    </mxGraphModel>
  </diagram>
</mxfile>
